<?xml version="1.0" standalone="no"?>
 <!DOCTYPE svg PUBLIC "-//W3C//DTD SVG 1.1//EN" 
 "http://www.w3.org/Graphics/SVG/1.1/DTD/svg11.dtd"> 
<svg xmlns="http://www.w3.org/2000/svg" version="1.1" 
    width="29.7002cm" height="21.0007cm" viewBox="0 0 116930 82680 ">
<title>SVG Picture created as velocomp-F.Cu.svg date 2018/03/28 11:10:24 </title>
  <desc>Picture generated by PCBNEW </desc>
<g style="fill:#000000; fill-opacity:1;stroke:#000000; stroke-opacity:1;
stroke-linecap:round; stroke-linejoin:round; "
 transform="translate(0 0) scale(1 1)">
</g>
<g style="fill:#000000; fill-opacity:0.0; 
stroke:#000000; stroke-width:-0.000393701; stroke-opacity:1; 
stroke-linecap:round; stroke-linejoin:round;">
</g>
<g style="fill:#000000; fill-opacity:0.0; 
stroke:#000000; stroke-width:0; stroke-opacity:1; 
stroke-linecap:round; stroke-linejoin:round;">
</g>
<g style="fill:#000000; fill-opacity:1.0; 
stroke:#000000; stroke-width:0; stroke-opacity:1; 
stroke-linecap:round; stroke-linejoin:round;">
<polyline style="fill-rule:evenodd;"
points="31578,30263
31578,30578
31224,30578
31224,30263
31578,30263
" /> 
<polyline style="fill-rule:evenodd;"
points="31578,29515
31578,29830
31224,29830
31224,29515
31578,29515
" /> 
<polyline style="fill-rule:evenodd;"
points="30791,29889
30791,30204
30437,30204
30437,29889
30791,29889
" /> 
<circle cx="40259.8" cy="30204.7" r="492.126" /> 
</g>
<g style="fill:#000000; fill-opacity:1.0; 
stroke:#000000; stroke-width:39.3701; stroke-opacity:1; 
stroke-linecap:round; stroke-linejoin:round;">
</g>
<g style="fill:#000000; fill-opacity:1.0; 
stroke:#000000; stroke-width:0; stroke-opacity:1; 
stroke-linecap:round; stroke-linejoin:round;">
<circle cx="32385.8" cy="20952.8" r="492.126" /> 
</g>
<g style="fill:#000000; fill-opacity:1.0; 
stroke:#000000; stroke-width:39.3701; stroke-opacity:1; 
stroke-linecap:round; stroke-linejoin:round;">
</g>
<g style="fill:#000000; fill-opacity:1.0; 
stroke:#000000; stroke-width:0; stroke-opacity:1; 
stroke-linecap:round; stroke-linejoin:round;">
<polyline style="fill-rule:evenodd;"
points="30344,21943
29544,21943
29544,21143
30344,21143
30344,21943
" /> 
</g>
<g style="fill:#000000; fill-opacity:1.0; 
stroke:#000000; stroke-width:800; stroke-opacity:1; 
stroke-linecap:round; stroke-linejoin:round;">
</g>
<g style="fill:#000000; fill-opacity:0.0; 
stroke:#000000; stroke-width:800; stroke-opacity:1; 
stroke-linecap:round; stroke-linejoin:round;">
<path d="M28944 21543
L28944 21543
" />
</g>
<g style="fill:#000000; fill-opacity:0.0; 
stroke:#000000; stroke-width:0; stroke-opacity:1; 
stroke-linecap:round; stroke-linejoin:round;">
</g>
<g style="fill:#000000; fill-opacity:1.0; 
stroke:#000000; stroke-width:0; stroke-opacity:1; 
stroke-linecap:round; stroke-linejoin:round;">
<polyline style="fill-rule:evenodd;"
points="34068,27133
34561,27133
34561,27724
34068,27724
34068,27133
" /> 
<polyline style="fill-rule:evenodd;"
points="34068,28118
34561,28118
34561,28708
34068,28708
34068,28118
" /> 
<polyline style="fill-rule:evenodd;"
points="33812,26543
33320,26543
33320,25952
33812,25952
33812,26543
" /> 
<polyline style="fill-rule:evenodd;"
points="33812,25559
33320,25559
33320,24968
33812,24968
33812,25559
" /> 
<polyline style="fill-rule:evenodd;"
points="36519,28541
36519,29033
35929,29033
35929,28541
36519,28541
" /> 
<polyline style="fill-rule:evenodd;"
points="35535,28541
35535,29033
34944,29033
34944,28541
35535,28541
" /> 
<polyline style="fill-rule:evenodd;"
points="36135,21661
35643,21661
35643,21070
36135,21070
36135,21661
" /> 
<polyline style="fill-rule:evenodd;"
points="36135,20677
35643,20677
35643,20086
36135,20086
36135,20677
" /> 
<polyline style="fill-rule:evenodd;"
points="34972,27478
34972,27222
35389,27222
35389,27478
34972,27478
" /> 
<polyline style="fill-rule:evenodd;"
points="34972,27852
34972,27596
35389,27596
35389,27852
34972,27852
" /> 
<polyline style="fill-rule:evenodd;"
points="34972,28226
34972,27970
35389,27970
35389,28226
34972,28226
" /> 
<polyline style="fill-rule:evenodd;"
points="35838,28226
35838,27970
36255,27970
36255,28226
35838,28226
" /> 
<polyline style="fill-rule:evenodd;"
points="35838,27478
35838,27222
36255,27222
36255,27478
35838,27478
" /> 
<polyline style="fill-rule:evenodd;"
points="38887,22389
39045,22389
39045,22783
38887,22783
38887,22389
" /> 
<polyline style="fill-rule:evenodd;"
points="38631,22389
38789,22389
38789,22783
38631,22783
38631,22389
" /> 
<polyline style="fill-rule:evenodd;"
points="38375,22389
38533,22389
38533,22783
38375,22783
38375,22389
" /> 
<polyline style="fill-rule:evenodd;"
points="38120,22389
38277,22389
38277,22783
38120,22783
38120,22389
" /> 
<polyline style="fill-rule:evenodd;"
points="37864,22389
38021,22389
38021,22783
37864,22783
37864,22389
" /> 
<polyline style="fill-rule:evenodd;"
points="37608,22389
37765,22389
37765,22783
37608,22783
37608,22389
" /> 
<polyline style="fill-rule:evenodd;"
points="37352,22389
37509,22389
37509,22783
37352,22783
37352,22389
" /> 
<polyline style="fill-rule:evenodd;"
points="37096,22389
37253,22389
37253,22783
37096,22783
37096,22389
" /> 
<polyline style="fill-rule:evenodd;"
points="36840,22389
36998,22389
36998,22783
36840,22783
36840,22389
" /> 
<polyline style="fill-rule:evenodd;"
points="36584,22389
36742,22389
36742,22783
36584,22783
36584,22389
" /> 
<polyline style="fill-rule:evenodd;"
points="36584,24673
36742,24673
36742,25066
36584,25066
36584,24673
" /> 
<polyline style="fill-rule:evenodd;"
points="36840,24673
36998,24673
36998,25066
36840,25066
36840,24673
" /> 
<polyline style="fill-rule:evenodd;"
points="37096,24673
37253,24673
37253,25066
37096,25066
37096,24673
" /> 
<polyline style="fill-rule:evenodd;"
points="37352,24673
37509,24673
37509,25066
37352,25066
37352,24673
" /> 
<polyline style="fill-rule:evenodd;"
points="37608,24673
37765,24673
37765,25066
37608,25066
37608,24673
" /> 
<polyline style="fill-rule:evenodd;"
points="37864,24673
38021,24673
38021,25066
37864,25066
37864,24673
" /> 
<polyline style="fill-rule:evenodd;"
points="38120,24673
38277,24673
38277,25066
38120,25066
38120,24673
" /> 
<polyline style="fill-rule:evenodd;"
points="38375,24673
38533,24673
38533,25066
38375,25066
38375,24673
" /> 
<polyline style="fill-rule:evenodd;"
points="38631,24673
38789,24673
38789,25066
38631,25066
38631,24673
" /> 
<polyline style="fill-rule:evenodd;"
points="38887,24673
39045,24673
39045,25066
38887,25066
38887,24673
" /> 
<polyline style="fill-rule:evenodd;"
points="34600,22015
34108,22015
34108,21425
34600,21425
34600,22015
" /> 
<polyline style="fill-rule:evenodd;"
points="34600,21031
34108,21031
34108,20440
34600,20440
34600,21031
" /> 
<polyline style="fill-rule:evenodd;"
points="35289,21996
34994,21996
34994,21523
35289,21523
35289,21996
" /> 
<polyline style="fill-rule:evenodd;"
points="35289,21248
34994,21248
34994,20775
35289,20775
35289,21248
" /> 
<polyline style="fill-rule:evenodd;"
points="38261,20106
38557,20106
38557,20578
38261,20578
38261,20106
" /> 
<polyline style="fill-rule:evenodd;"
points="38261,20854
38557,20854
38557,21326
38261,21326
38261,20854
" /> 
<polyline style="fill-rule:evenodd;"
points="37671,20106
37966,20106
37966,20578
37671,20578
37671,20106
" /> 
<polyline style="fill-rule:evenodd;"
points="37671,20854
37966,20854
37966,21326
37671,21326
37671,20854
" /> 
<polyline style="fill-rule:evenodd;"
points="31320,26494
31084,26494
31084,25883
31320,25883
31320,26494
" /> 
<polyline style="fill-rule:evenodd;"
points="31820,26494
31584,26494
31584,25883
31820,25883
31820,26494
" /> 
<polyline style="fill-rule:evenodd;"
points="32320,26494
32084,26494
32084,25883
32320,25883
32320,26494
" /> 
<polyline style="fill-rule:evenodd;"
points="32820,26494
32584,26494
32584,25883
32820,25883
32820,26494
" /> 
<polyline style="fill-rule:evenodd;"
points="32820,24368
32584,24368
32584,23757
32820,23757
32820,24368
" /> 
<polyline style="fill-rule:evenodd;"
points="32320,24368
32084,24368
32084,23757
32320,23757
32320,24368
" /> 
<polyline style="fill-rule:evenodd;"
points="31820,24368
31584,24368
31584,23757
31820,23757
31820,24368
" /> 
<polyline style="fill-rule:evenodd;"
points="31320,24368
31084,24368
31084,23757
31320,23757
31320,24368
" /> 
<polyline style="fill-rule:evenodd;"
points="32415,25125
31952,25125
31952,24663
32415,24663
32415,25125
" /> 
<polyline style="fill-rule:evenodd;"
points="31952,25125
31490,25125
31490,24663
31952,24663
31952,25125
" /> 
<polyline style="fill-rule:evenodd;"
points="32415,25588
31952,25588
31952,25125
32415,25125
32415,25588
" /> 
<polyline style="fill-rule:evenodd;"
points="31952,25588
31490,25588
31490,25125
31952,25125
31952,25588
" /> 
<circle cx="38015.7" cy="30559.1" r="393.701" /> 
</g>
<g style="fill:#000000; fill-opacity:1.0; 
stroke:#000000; stroke-width:39.3701; stroke-opacity:1; 
stroke-linecap:round; stroke-linejoin:round;">
</g>
<g style="fill:#000000; fill-opacity:1.0; 
stroke:#000000; stroke-width:0; stroke-opacity:1; 
stroke-linecap:round; stroke-linejoin:round;">
<circle cx="38015.7" cy="29535.4" r="393.701" /> 
</g>
<g style="fill:#000000; fill-opacity:1.0; 
stroke:#000000; stroke-width:39.3701; stroke-opacity:1; 
stroke-linecap:round; stroke-linejoin:round;">
</g>
<g style="fill:#000000; fill-opacity:1.0; 
stroke:#000000; stroke-width:0; stroke-opacity:1; 
stroke-linecap:round; stroke-linejoin:round;">
<circle cx="36519.7" cy="30165.4" r="590.551" /> 
</g>
<g style="fill:#000000; fill-opacity:1.0; 
stroke:#000000; stroke-width:39.3701; stroke-opacity:1; 
stroke-linecap:round; stroke-linejoin:round;">
</g>
<g style="fill:#000000; fill-opacity:1.0; 
stroke:#000000; stroke-width:1181.1; stroke-opacity:1; 
stroke-linecap:round; stroke-linejoin:round;">
</g>
<g style="fill:#000000; fill-opacity:0.0; 
stroke:#000000; stroke-width:1181.1; stroke-opacity:1; 
stroke-linecap:round; stroke-linejoin:round;">
<path d="M28527 30165
L28527 30165
" />
</g>
<g style="fill:#000000; fill-opacity:1.0; 
stroke:#000000; stroke-width:0; stroke-opacity:1; 
stroke-linecap:round; stroke-linejoin:round;">
<circle cx="39039.4" cy="20913.4" r="295.276" /> 
</g>
<g style="fill:#000000; fill-opacity:1.0; 
stroke:#000000; stroke-width:39.3701; stroke-opacity:1; 
stroke-linecap:round; stroke-linejoin:round;">
</g>
<g style="fill:#000000; fill-opacity:1.0; 
stroke:#000000; stroke-width:0; stroke-opacity:1; 
stroke-linecap:round; stroke-linejoin:round;">
<circle cx="37118.1" cy="20913.4" r="295.276" /> 
</g>
<g style="fill:#000000; fill-opacity:1.0; 
stroke:#000000; stroke-width:39.3701; stroke-opacity:1; 
stroke-linecap:round; stroke-linejoin:round;">
</g>
<g style="fill:#000000; fill-opacity:1.0; 
stroke:#000000; stroke-width:0; stroke-opacity:1; 
stroke-linecap:round; stroke-linejoin:round;">
<polyline style="fill-rule:evenodd;"
points="31086,27311
31086,26956
31559,26956
31559,27311
31086,27311
" /> 
<polyline style="fill-rule:evenodd;"
points="31952,27311
31952,26956
32425,26956
32425,27311
31952,27311
" /> 
<polyline style="fill-rule:evenodd;"
points="31834,23177
31834,23531
31362,23531
31362,23177
31834,23177
" /> 
<polyline style="fill-rule:evenodd;"
points="30968,23177
30968,23531
30496,23531
30496,23177
30968,23177
" /> 
<polyline style="fill-rule:evenodd;"
points="38685,27842
38685,27055
39078,27055
39078,27842
38685,27842
" /> 
<polyline style="fill-rule:evenodd;"
points="40051,24484
40051,25271
39657,25271
39657,24484
40051,24484
" /> 
<polyline style="fill-rule:evenodd;"
points="39669,21464
39669,20677
40062,20677
40062,21464
39669,21464
" /> 
<circle cx="29511.8" cy="24653.5" r="54.1339" /> 
</g>
<g style="fill:#000000; fill-opacity:1.0; 
stroke:#000000; stroke-width:39.3701; stroke-opacity:1; 
stroke-linecap:round; stroke-linejoin:round;">
</g>
<g style="fill:#000000; fill-opacity:1.0; 
stroke:#000000; stroke-width:0; stroke-opacity:1; 
stroke-linecap:round; stroke-linejoin:round;">
<polyline style="fill-rule:evenodd;"
points="29511,24850
30141,24850
30141,25007
29511,25007
29511,24850
" /> 
<polyline style="fill-rule:evenodd;"
points="29511,25106
30141,25106
30141,25263
29511,25263
29511,25106
" /> 
<polyline style="fill-rule:evenodd;"
points="29511,25874
30141,25874
30141,26031
29511,26031
29511,25874
" /> 
<polyline style="fill-rule:evenodd;"
points="29511,25618
30141,25618
30141,25775
29511,25775
29511,25618
" /> 
<polyline style="fill-rule:evenodd;"
points="28035,25814
28429,25814
28429,26248
28035,26248
28035,25814
" /> 
<polyline style="fill-rule:evenodd;"
points="28035,24633
28429,24633
28429,25066
28035,25066
28035,24633
" /> 
<polyline style="fill-rule:evenodd;"
points="28429,26425
28901,26425
28901,27212
28429,27212
28429,26425
" /> 
<polyline style="fill-rule:evenodd;"
points="28429,23669
28901,23669
28901,24456
28429,24456
28429,23669
" /> 
<polyline style="fill-rule:evenodd;"
points="29413,26425
29885,26425
29885,27212
29413,27212
29413,26425
" /> 
<polyline style="fill-rule:evenodd;"
points="29413,23669
29885,23669
29885,24456
29413,24456
29413,23669
" /> 
<polyline style="fill-rule:evenodd;"
points="29511,25362
30141,25362
30141,25519
29511,25519
29511,25362
" /> 
<circle cx="29511.8" cy="26228.3" r="54.1339" /> 
</g>
<g style="fill:#000000; fill-opacity:1.0; 
stroke:#000000; stroke-width:39.3701; stroke-opacity:1; 
stroke-linecap:round; stroke-linejoin:round;">
</g>
<g style="fill:#000000; fill-opacity:1.0; 
stroke:#000000; stroke-width:0; stroke-opacity:1; 
stroke-linecap:round; stroke-linejoin:round;">
<polyline style="fill-rule:evenodd;"
points="41185,25598
40830,25598
40830,25125
41185,25125
41185,25598
" /> 
<polyline style="fill-rule:evenodd;"
points="41185,24732
40830,24732
40830,24259
41185,24259
41185,24732
" /> 
<polyline style="fill-rule:evenodd;"
points="39905,26287
39905,25933
40377,25933
40377,26287
39905,26287
" /> 
<polyline style="fill-rule:evenodd;"
points="40771,26287
40771,25933
41244,25933
41244,26287
40771,26287
" /> 
<polyline style="fill-rule:evenodd;"
points="30358,23787
30712,23787
30712,24259
30358,24259
30358,23787
" /> 
<polyline style="fill-rule:evenodd;"
points="30358,24653
30712,24653
30712,25125
30358,25125
30358,24653
" /> 
<circle cx="44295.3" cy="21779.5" r="433.071" /> 
</g>
<g style="fill:#000000; fill-opacity:1.0; 
stroke:#000000; stroke-width:39.3701; stroke-opacity:1; 
stroke-linecap:round; stroke-linejoin:round;">
</g>
<g style="fill:#000000; fill-opacity:1.0; 
stroke:#000000; stroke-width:0; stroke-opacity:1; 
stroke-linecap:round; stroke-linejoin:round;">
<circle cx="41539.4" cy="21779.5" r="433.071" /> 
</g>
<g style="fill:#000000; fill-opacity:1.0; 
stroke:#000000; stroke-width:39.3701; stroke-opacity:1; 
stroke-linecap:round; stroke-linejoin:round;">
</g>
<g style="fill:#000000; fill-opacity:1.0; 
stroke:#000000; stroke-width:0; stroke-opacity:1; 
stroke-linecap:round; stroke-linejoin:round;">
<circle cx="43803.1" cy="20795.3" r="393.701" /> 
</g>
<g style="fill:#000000; fill-opacity:1.0; 
stroke:#000000; stroke-width:39.3701; stroke-opacity:1; 
stroke-linecap:round; stroke-linejoin:round;">
</g>
<g style="fill:#000000; fill-opacity:1.0; 
stroke:#000000; stroke-width:0; stroke-opacity:1; 
stroke-linecap:round; stroke-linejoin:round;">
<circle cx="42031.5" cy="20795.3" r="393.701" /> 
</g>
<g style="fill:#000000; fill-opacity:1.0; 
stroke:#000000; stroke-width:39.3701; stroke-opacity:1; 
stroke-linecap:round; stroke-linejoin:round;">
</g>
<g style="fill:#000000; fill-opacity:1.0; 
stroke:#000000; stroke-width:0; stroke-opacity:1; 
stroke-linecap:round; stroke-linejoin:round;">
<polyline style="fill-rule:evenodd;"
points="30023,29299
30023,28511
30811,28511
30811,29299
30023,29299
" /> 
<circle cx="31992.1" cy="28905.5" r="393.701" /> 
</g>
<g style="fill:#000000; fill-opacity:1.0; 
stroke:#000000; stroke-width:39.3701; stroke-opacity:1; 
stroke-linecap:round; stroke-linejoin:round;">
</g>
<g style="fill:#000000; fill-opacity:1.0; 
stroke:#000000; stroke-width:0; stroke-opacity:1; 
stroke-linecap:round; stroke-linejoin:round;">
<polyline style="fill-rule:evenodd;"
points="36283,24968
35496,24968
35496,24574
36283,24574
36283,24968
" /> 
<polyline style="fill-rule:evenodd;"
points="39433,27842
39433,27055
39826,27055
39826,27842
39433,27842
" /> 
<circle cx="31480.3" cy="22409.4" r="393.701" /> 
</g>
<g style="fill:#000000; fill-opacity:1.0; 
stroke:#000000; stroke-width:39.3701; stroke-opacity:1; 
stroke-linecap:round; stroke-linejoin:round;">
</g>
<g style="fill:#000000; fill-opacity:1.0; 
stroke:#000000; stroke-width:0; stroke-opacity:1; 
stroke-linecap:round; stroke-linejoin:round;">
<circle cx="43212.6" cy="30480.3" r="393.701" /> 
</g>
<g style="fill:#000000; fill-opacity:1.0; 
stroke:#000000; stroke-width:39.3701; stroke-opacity:1; 
stroke-linecap:round; stroke-linejoin:round;">
</g>
<g style="fill:#000000; fill-opacity:1.0; 
stroke:#000000; stroke-width:0; stroke-opacity:1; 
stroke-linecap:round; stroke-linejoin:round;">
<circle cx="35811" cy="22488.2" r="393.701" /> 
</g>
<g style="fill:#000000; fill-opacity:1.0; 
stroke:#000000; stroke-width:39.3701; stroke-opacity:1; 
stroke-linecap:round; stroke-linejoin:round;">
</g>
<g style="fill:#000000; fill-opacity:1.0; 
stroke:#000000; stroke-width:0; stroke-opacity:1; 
stroke-linecap:round; stroke-linejoin:round;">
<circle cx="40850.4" cy="20716.5" r="393.701" /> 
</g>
<g style="fill:#000000; fill-opacity:1.0; 
stroke:#000000; stroke-width:39.3701; stroke-opacity:1; 
stroke-linecap:round; stroke-linejoin:round;">
</g>
<g style="fill:#000000; fill-opacity:1.0; 
stroke:#000000; stroke-width:0; stroke-opacity:1; 
stroke-linecap:round; stroke-linejoin:round;">
<circle cx="34905.5" cy="30126" r="393.701" /> 
</g>
<g style="fill:#000000; fill-opacity:1.0; 
stroke:#000000; stroke-width:39.3701; stroke-opacity:1; 
stroke-linecap:round; stroke-linejoin:round;">
</g>
<g style="fill:#000000; fill-opacity:1.0; 
stroke:#000000; stroke-width:0; stroke-opacity:1; 
stroke-linecap:round; stroke-linejoin:round;">
<circle cx="33527.6" cy="30126" r="393.701" /> 
</g>
<g style="fill:#000000; fill-opacity:1.0; 
stroke:#000000; stroke-width:39.3701; stroke-opacity:1; 
stroke-linecap:round; stroke-linejoin:round;">
</g>
<g style="fill:#000000; fill-opacity:1.0; 
stroke:#000000; stroke-width:0; stroke-opacity:1; 
stroke-linecap:round; stroke-linejoin:round;">
<circle cx="34000" cy="22921.3" r="393.701" /> 
</g>
<g style="fill:#000000; fill-opacity:1.0; 
stroke:#000000; stroke-width:39.3701; stroke-opacity:1; 
stroke-linecap:round; stroke-linejoin:round;">
</g>
<g style="fill:#000000; fill-opacity:1.0; 
stroke:#000000; stroke-width:0; stroke-opacity:1; 
stroke-linecap:round; stroke-linejoin:round;">
<circle cx="41952.8" cy="30480.3" r="393.701" /> 
</g>
<g style="fill:#000000; fill-opacity:1.0; 
stroke:#000000; stroke-width:39.3701; stroke-opacity:1; 
stroke-linecap:round; stroke-linejoin:round;">
</g>
<g style="fill:#000000; fill-opacity:1.0; 
stroke:#000000; stroke-width:118.11; stroke-opacity:1; 
stroke-linecap:round; stroke-linejoin:round;">
</g>
<g style="fill:#000000; fill-opacity:0.0; 
stroke:#000000; stroke-width:118.11; stroke-opacity:1; 
stroke-linecap:round; stroke-linejoin:round;">
<path d="M31202 26188
L31202 25470
" />
<path d="M31315 25357
L31721 25357
" />
<path d="M31202 25470
L31315 25357
" />
<path d="M34393 29259
L35141 29259
" />
<path d="M35240 29161
L35240 28787
" />
<path d="M35141 29259
L35240 29161
" />
<path d="M29118 25795
L29118 23393
" />
</g>
<g style="fill:#000000; fill-opacity:0.0; 
stroke:#000000; stroke-width:236.22; stroke-opacity:1; 
stroke-linecap:round; stroke-linejoin:round;">
<path d="M38409 20342
L37818 20342
" />
<path d="M41716 20086
L38665 20086
" />
<path d="M38665 20086
L38409 20342
" />
</g>
<g style="fill:#000000; fill-opacity:0.0; 
stroke:#000000; stroke-width:118.11; stroke-opacity:1; 
stroke-linecap:round; stroke-linejoin:round;">
<path d="M37431 22586
L37431 23230
" />
<path d="M37267 23393
L36440 23393
" />
<path d="M37431 23230
L37267 23393
" />
<path d="M37431 22586
L37431 21785
" />
<path d="M37431 21785
L37228 21582
" />
<path d="M35181 27724
L34905 27724
" />
<path d="M34905 27724
L34314 28314
" />
<path d="M34314 28314
L34314 28413
" />
<path d="M34314 28236
L34314 28413
" />
<path d="M35240 28787
L34688 28787
" />
<path d="M34688 28787
L34314 28413
" />
<path d="M28527 30165
L28527 28157
" />
<path d="M28527 28157
L28429 28059
" />
<path d="M29807 25688
L30385 25688
" />
<path d="M30370 25704
L30370 25944
" />
<path d="M30385 25688
L30370 25704
" />
<path d="M29807 25944
L30370 25944
" />
<path d="M30370 25944
L30393 25944
" />
<path d="M30393 25944
L30397 25948
" />
<path d="M29807 25944
L29807 25688
" />
<path d="M29807 25944
L29157 25944
" />
<path d="M29157 25944
L29118 25984
" />
</g>
<g style="fill:#000000; fill-opacity:0.0; 
stroke:#000000; stroke-width:236.22; stroke-opacity:1; 
stroke-linecap:round; stroke-linejoin:round;">
<path d="M32202 26188
L32202 27120
" />
<path d="M32202 27120
L32188 27133
" />
<path d="M32184 25357
L33473 25357
" />
<path d="M33473 25357
L33566 25263
" />
<path d="M43232 20086
L43889 20744
" />
<path d="M41716 20086
L43232 20086
" />
</g>
<g style="fill:#000000; fill-opacity:0.0; 
stroke:#000000; stroke-width:118.11; stroke-opacity:1; 
stroke-linecap:round; stroke-linejoin:round;">
<path d="M28429 28059
L28822 27665
" />
<path d="M28822 27665
L29118 27370
" />
<path d="M29118 27370
L29118 25984
" />
<path d="M29118 25984
L29118 25795
" />
<path d="M29118 25795
L29118 25688
" />
</g>
<g style="fill:#000000; fill-opacity:0.0; 
stroke:#000000; stroke-width:78.7402; stroke-opacity:1; 
stroke-linecap:round; stroke-linejoin:round;">
<path d="M29118 25688
L29051 25688
" />
<path d="M32188 26202
L32202 26188
" />
</g>
<g style="fill:#000000; fill-opacity:0.0; 
stroke:#000000; stroke-width:236.22; stroke-opacity:1; 
stroke-linecap:round; stroke-linejoin:round;">
<path d="M32202 26188
L32202 25375
" />
</g>
<g style="fill:#000000; fill-opacity:0.0; 
stroke:#000000; stroke-width:78.7402; stroke-opacity:1; 
stroke-linecap:round; stroke-linejoin:round;">
<path d="M32202 25375
L32184 25357
" />
</g>
<g style="fill:#000000; fill-opacity:0.0; 
stroke:#000000; stroke-width:118.11; stroke-opacity:1; 
stroke-linecap:round; stroke-linejoin:round;">
<path d="M29807 25688
L29051 25688
" />
</g>
<g style="fill:#000000; fill-opacity:0.0; 
stroke:#000000; stroke-width:78.7402; stroke-opacity:1; 
stroke-linecap:round; stroke-linejoin:round;">
<path d="M32281 25188
L32262 25170
" />
</g>
<g style="fill:#000000; fill-opacity:0.0; 
stroke:#000000; stroke-width:118.11; stroke-opacity:1; 
stroke-linecap:round; stroke-linejoin:round;">
<path d="M35062 25440
L35062 25716
" />
<path d="M35062 26267
L35062 25716
" />
<path d="M34314 27015
L35062 26267
" />
<path d="M34314 27429
L34314 27015
" />
<path d="M35181 27350
L34393 27350
" />
<path d="M34393 27350
L34314 27429
" />
<path d="M36736 22035
L36559 21858
" />
<path d="M36559 21858
L35240 21858
" />
<path d="M35240 21858
L35141 21759
" />
<path d="M31992 28905
L32582 28905
" />
<path d="M34059 27429
L34314 27429
" />
<path d="M32582 28905
L34059 27429
" />
<path d="M31480 22409
L31716 22645
" />
</g>
<g style="fill:#000000; fill-opacity:0.0; 
stroke:#000000; stroke-width:236.22; stroke-opacity:1; 
stroke-linecap:round; stroke-linejoin:round;">
<path d="M31716 22645
L32149 23078
" />
<path d="M32149 23078
L32702 23078
" />
</g>
<g style="fill:#000000; fill-opacity:0.0; 
stroke:#000000; stroke-width:118.11; stroke-opacity:1; 
stroke-linecap:round; stroke-linejoin:round;">
<path d="M32702 23472
L33094 23472
" />
<path d="M33094 23472
L35062 25440
" />
</g>
<g style="fill:#000000; fill-opacity:0.0; 
stroke:#000000; stroke-width:236.22; stroke-opacity:1; 
stroke-linecap:round; stroke-linejoin:round;">
<path d="M32702 23314
L32702 23078
" />
</g>
<g style="fill:#000000; fill-opacity:0.0; 
stroke:#000000; stroke-width:118.11; stroke-opacity:1; 
stroke-linecap:round; stroke-linejoin:round;">
<path d="M32702 23078
L32702 22801
" />
<path d="M32702 22801
L33783 21720
" />
<path d="M33783 21720
L34354 21720
" />
<path d="M35141 21759
L34393 21759
" />
</g>
<g style="fill:#000000; fill-opacity:0.0; 
stroke:#000000; stroke-width:78.7402; stroke-opacity:1; 
stroke-linecap:round; stroke-linejoin:round;">
<path d="M34393 21759
L34354 21720
" />
</g>
<g style="fill:#000000; fill-opacity:0.0; 
stroke:#000000; stroke-width:118.11; stroke-opacity:1; 
stroke-linecap:round; stroke-linejoin:round;">
<path d="M36919 22586
L36919 22218
" />
<path d="M36919 22218
L36736 22035
" />
</g>
<g style="fill:#000000; fill-opacity:0.0; 
stroke:#000000; stroke-width:236.22; stroke-opacity:1; 
stroke-linecap:round; stroke-linejoin:round;">
<path d="M32702 23314
L32702 23472
" />
<path d="M32702 23472
L32702 23708
" />
<path d="M32702 23708
L32702 24062
" />
</g>
<g style="fill:#000000; fill-opacity:0.0; 
stroke:#000000; stroke-width:118.11; stroke-opacity:1; 
stroke-linecap:round; stroke-linejoin:round;">
<path d="M36637 21543
L36066 21543
" />
<path d="M36066 21543
L35889 21366
" />
<path d="M36637 21543
L37175 22080
" />
<path d="M37175 22080
L37175 22586
" />
</g>
<g style="fill:#000000; fill-opacity:0.0; 
stroke:#000000; stroke-width:78.7402; stroke-opacity:1; 
stroke-linecap:round; stroke-linejoin:round;">
<path d="M37175 22586
L37175 22080
" />
<path d="M36066 21543
L35889 21366
" />
</g>
<g style="fill:#000000; fill-opacity:0.0; 
stroke:#000000; stroke-width:118.11; stroke-opacity:1; 
stroke-linecap:round; stroke-linejoin:round;">
<path d="M41677 27645
L41677 28708
" />
<path d="M43212 30244
L43212 30480
" />
<path d="M41677 28708
L43212 30244
" />
<path d="M41125 22645
L41322 22842
" />
<path d="M38685 21937
L40417 21937
" />
<path d="M40417 21937
L41125 22645
" />
<path d="M38454 22167
L38685 21937
" />
<path d="M38454 22586
L38454 22167
" />
<path d="M41322 22842
L41480 23000
" />
<path d="M41480 23000
L41677 23196
" />
<path d="M41677 23196
L41677 27645
" />
<path d="M40456 22566
L41086 23196
" />
<path d="M41086 23196
L41086 24417
" />
<path d="M41086 24417
L41007 24496
" />
<path d="M40279 22389
L40456 22566
" />
<path d="M39472 22212
L40102 22212
" />
<path d="M40102 22212
L40279 22389
" />
<path d="M38710 22586
L38710 22265
" />
<path d="M38763 22212
L39472 22212
" />
<path d="M38710 22265
L38763 22212
" />
<path d="M36519 30165
L37267 29417
" />
<path d="M37267 25952
L37661 25559
" />
<path d="M37267 29417
L37267 25952
" />
</g>
<g style="fill:#000000; fill-opacity:0.0; 
stroke:#000000; stroke-width:78.7402; stroke-opacity:1; 
stroke-linecap:round; stroke-linejoin:round;">
<path d="M36519 30165
L36519 29653
" />
</g>
<g style="fill:#000000; fill-opacity:0.0; 
stroke:#000000; stroke-width:118.11; stroke-opacity:1; 
stroke-linecap:round; stroke-linejoin:round;">
<path d="M37661 25559
L37942 25277
" />
<path d="M37942 25277
L37942 24870
" />
<path d="M36663 24870
L35988 24870
" />
<path d="M35988 24870
L35889 24771
" />
<path d="M38198 24870
L38198 28525
" />
<path d="M38015 28708
L38015 29535
" />
<path d="M38198 28525
L38015 28708
" />
<path d="M35811 22488
L36564 22488
" />
<path d="M36564 22488
L36663 22586
" />
<path d="M36643 22566
L36663 22586
" />
<path d="M32031 27763
L32425 27763
" />
<path d="M33566 26622
L33566 26248
" />
<path d="M32425 27763
L33566 26622
" />
<path d="M31139 24000
L31202 24062
" />
<path d="M30692 27236
L30692 27346
" />
<path d="M30692 27346
L31110 27763
" />
<path d="M31192 24053
L31202 24062
" />
<path d="M29807 24921
L30980 24921
" />
<path d="M31202 24698
L31202 24062
" />
<path d="M30980 24921
L31202 24698
" />
<path d="M33566 26248
L32761 26248
" />
</g>
<g style="fill:#000000; fill-opacity:0.0; 
stroke:#000000; stroke-width:78.7402; stroke-opacity:1; 
stroke-linecap:round; stroke-linejoin:round;">
<path d="M32761 26248
L32702 26188
" />
</g>
<g style="fill:#000000; fill-opacity:0.0; 
stroke:#000000; stroke-width:118.11; stroke-opacity:1; 
stroke-linecap:round; stroke-linejoin:round;">
<path d="M32031 27763
L31110 27763
" />
<path d="M30692 27236
L30692 25244
" />
</g>
<g style="fill:#000000; fill-opacity:0.0; 
stroke:#000000; stroke-width:78.7402; stroke-opacity:1; 
stroke-linecap:round; stroke-linejoin:round;">
<path d="M30370 24921
L29807 24921
" />
</g>
<g style="fill:#000000; fill-opacity:0.0; 
stroke:#000000; stroke-width:118.11; stroke-opacity:1; 
stroke-linecap:round; stroke-linejoin:round;">
<path d="M30692 25244
L30370 24921
" />
<path d="M37942 22586
L37942 21694
" />
<path d="M37942 21694
L38409 21228
" />
<path d="M38409 21228
L38409 21090
" />
<path d="M39039 20913
L38586 20913
" />
<path d="M38586 20913
L38409 21090
" />
</g>
<g style="fill:#000000; fill-opacity:0.0; 
stroke:#000000; stroke-width:78.7402; stroke-opacity:1; 
stroke-linecap:round; stroke-linejoin:round;">
<path d="M38409 21149
L38409 21090
" />
</g>
<g style="fill:#000000; fill-opacity:0.0; 
stroke:#000000; stroke-width:118.11; stroke-opacity:1; 
stroke-linecap:round; stroke-linejoin:round;">
<path d="M38862 21090
L39039 20913
" />
<path d="M37118 20913
L37641 20913
" />
<path d="M37641 20913
L37818 21090
" />
<path d="M37295 21090
L37118 20913
" />
<path d="M37687 22586
L37687 21557
" />
<path d="M37687 21557
L37818 21425
" />
<path d="M37818 21425
L37818 21090
" />
</g>
<g style="fill:#000000; fill-opacity:0.0; 
stroke:#000000; stroke-width:78.7402; stroke-opacity:1; 
stroke-linecap:round; stroke-linejoin:round;">
<path d="M37295 21090
L37118 20913
" />
</g>
<g style="fill:#000000; fill-opacity:0.0; 
stroke:#000000; stroke-width:118.11; stroke-opacity:1; 
stroke-linecap:round; stroke-linejoin:round;">
<path d="M38291 21858
L38291 21740
" />
<path d="M38291 21740
L38409 21858
" />
<path d="M38370 21818
L38370 21858
" />
<path d="M38409 21858
L38370 21818
" />
<path d="M38251 21740
L38291 21740
" />
<path d="M38198 21858
L38198 21793
" />
<path d="M38198 21793
L38251 21740
" />
<path d="M38370 21661
L38370 21740
" />
<path d="M38291 21740
L38370 21661
" />
<path d="M38370 21740
L38370 21740
" />
<path d="M38370 21740
L38448 21661
" />
<path d="M38448 21661
L38527 21661
" />
<path d="M38527 21661
L38527 21779
" />
<path d="M38448 21740
L38448 21858
" />
<path d="M38370 21740
L38448 21740
" />
<path d="M38448 21858
L38370 21858
" />
<path d="M38370 21858
L38291 21858
" />
<path d="M38291 21858
L38198 21858
" />
<path d="M38198 21858
L38251 21858
" />
<path d="M38251 21858
L38198 21858
" />
<path d="M38198 22586
L38198 21858
" />
</g>
<g style="fill:#000000; fill-opacity:0.0; 
stroke:#000000; stroke-width:78.7402; stroke-opacity:1; 
stroke-linecap:round; stroke-linejoin:round;">
<path d="M31322 27133
L31322 26976
" />
</g>
<g style="fill:#000000; fill-opacity:0.0; 
stroke:#000000; stroke-width:118.11; stroke-opacity:1; 
stroke-linecap:round; stroke-linejoin:round;">
<path d="M31322 26976
L31702 26596
" />
<path d="M31702 26596
L31702 26188
" />
<path d="M37175 24870
L37175 25494
" />
<path d="M37175 25494
L35771 26897
" />
<path d="M35181 28098
L35476 28098
" />
<path d="M35476 28098
L35614 27960
" />
<path d="M35614 27960
L35614 27055
" />
<path d="M35614 27055
L35771 26897
" />
<path d="M38881 27448
L38881 26114
" />
<path d="M38881 26114
L38454 25687
" />
<path d="M38454 25687
L38454 24870
" />
</g>
<g style="fill:#000000; fill-opacity:0.0; 
stroke:#000000; stroke-width:236.22; stroke-opacity:1; 
stroke-linecap:round; stroke-linejoin:round;">
<path d="M42031 20795
L40929 20795
" />
<path d="M40929 20795
L40850 20716
" />
<path d="M41952 20716
L42031 20795
" />
<path d="M40850 20716
L39944 20992
" />
<path d="M39944 20992
L39866 21070
" />
</g>
<g style="fill:#000000; fill-opacity:0.0; 
stroke:#000000; stroke-width:78.7402; stroke-opacity:1; 
stroke-linecap:round; stroke-linejoin:round;">
<path d="M41976 20889
L42031 20834
" />
</g>
<g style="fill:#000000; fill-opacity:0.0; 
stroke:#000000; stroke-width:118.11; stroke-opacity:1; 
stroke-linecap:round; stroke-linejoin:round;">
<path d="M38966 24870
L39846 24870
" />
</g>
<g style="fill:#000000; fill-opacity:0.0; 
stroke:#000000; stroke-width:78.7402; stroke-opacity:1; 
stroke-linecap:round; stroke-linejoin:round;">
<path d="M39846 24870
L39854 24877
" />
<path d="M42118 20744
L42118 20803
" />
</g>
<g style="fill:#000000; fill-opacity:0.0; 
stroke:#000000; stroke-width:118.11; stroke-opacity:1; 
stroke-linecap:round; stroke-linejoin:round;">
<path d="M36224 28787
L36244 28787
" />
<path d="M36244 28787
L36677 28354
" />
<path d="M36421 27350
L36047 27350
" />
<path d="M36677 27606
L36421 27350
" />
<path d="M36677 28354
L36677 27606
" />
<path d="M36224 28787
L36224 28807
" />
<path d="M36224 28807
L34905 30125
" />
<path d="M34905 30125
L34905 30125
" />
<path d="M36224 28787
L36224 28688
" />
</g>
<g style="fill:#000000; fill-opacity:0.0; 
stroke:#000000; stroke-width:78.7402; stroke-opacity:1; 
stroke-linecap:round; stroke-linejoin:round;">
<path d="M34905 30125
L34866 30125
" />
</g>
<g style="fill:#000000; fill-opacity:0.0; 
stroke:#000000; stroke-width:118.11; stroke-opacity:1; 
stroke-linecap:round; stroke-linejoin:round;">
<path d="M33527 30125
L32464 30125
" />
<path d="M32464 30125
L32169 30421
" />
<path d="M34460 23367
L34446 23367
" />
<path d="M34446 23367
L34000 22921
" />
<path d="M38966 22586
L38966 23112
" />
<path d="M38212 23866
L38966 23112
" />
<path d="M35023 23866
L38212 23866
" />
<path d="M34460 23367
L35023 23866
" />
<path d="M31401 30421
L32169 30421
" />
</g>
<g style="fill:#000000; fill-opacity:0.0; 
stroke:#000000; stroke-width:78.7402; stroke-opacity:1; 
stroke-linecap:round; stroke-linejoin:round;">
<path d="M38966 22586
L38966 22690
" />
</g>
<g style="fill:#000000; fill-opacity:0.0; 
stroke:#000000; stroke-width:118.11; stroke-opacity:1; 
stroke-linecap:round; stroke-linejoin:round;">
<path d="M30417 28905
L30417 29456
" />
<path d="M30417 29456
L30614 29653
" />
<path d="M30614 30047
L30614 29653
" />
<path d="M30614 29102
L30417 28905
" />
<path d="M30614 28669
L30535 28590
" />
<path d="M31702 24062
L31702 23458
" />
<path d="M31702 23458
L31598 23354
" />
<path d="M38710 24870
L38710 25505
" />
<path d="M39629 26937
L39629 27448
" />
<path d="M39275 26582
L39629 26937
" />
<path d="M39275 26070
L39275 26582
" />
<path d="M38710 25505
L39275 26070
" />
<path d="M41007 25362
L41007 26110
" />
<path d="M41007 26110
L41007 28629
" />
<path d="M41952 29574
L41401 29023
" />
<path d="M41952 30480
L41952 29574
" />
<path d="M41086 28708
L41401 29023
" />
<path d="M41007 28629
L41086 28708
" />
<path d="M30732 23354
L30732 23511
" />
<path d="M30732 23511
L30535 23708
" />
<path d="M30535 23708
L30535 24023
" />
</g>
<g style="fill:#000000; fill-opacity:1.0; 
stroke:#000000; stroke-width:100; stroke-opacity:1; 
stroke-linecap:round; stroke-linejoin:round;">
<polyline style="fill-rule:evenodd;"
points="35431,19945
35393,20036
35393,20269
35456,20331
35839,20331
35839,20324
35939,20324
35939,20331
36323,20331
36385,20269
36385,20036
36347,19945
36324,19922
37501,19922
37459,19964
37421,20056
37421,20230
37483,20292
37768,20292
37768,20284
37868,20284
37868,20292
38359,20292
38359,20284
38459,20284
38459,20292
38744,20292
38807,20230
38807,20056
38769,19964
38726,19922
41296,19922
41296,20312
41191,20207
40970,20115
40731,20115
40510,20206
40341,20375
40267,20553
40236,20563
40214,20529
40145,20482
40062,20465
39669,20465
39592,20480
39521,20525
39474,20594
39466,20631
39465,20628
39324,20487
39139,20410
38939,20410
38807,20465
38807,20455
38744,20392
38459,20392
38459,20400
38359,20400
38359,20392
37868,20392
37868,20400
37768,20400
37768,20392
37483,20392
37421,20455
37421,20505
37403,20487
37218,20410
37018,20410
36833,20486
36692,20628
36615,20812
36615,21012
36691,21197
36832,21339
37017,21416
37217,21416
37402,21339
37422,21320
37459,21295
37459,21326
37474,21403
37474,21404
37440,21455
37420,21557
37420,21977
37363,21892
36826,21354
36803,21339
36739,21297
36637,21276
36347,21276
36347,21070
36332,20993
36287,20923
36252,20899
36277,20889
36347,20818
36385,20726
36385,20494
36323,20431
35939,20431
35939,20439
35839,20439
35839,20431
35456,20431
35393,20494
35393,20548
35339,20525
35254,20525
35191,20588
35191,20961
35199,20961
35199,21061
35191,21061
35191,21069
35091,21069
35091,21061
35083,21061
35083,20961
35091,20961
35091,20588
35029,20525
34944,20525
34852,20563
34850,20565
34850,20391
34812,20299
34742,20229
34650,20190
34466,20190
34404,20253
34404,20686
34412,20686
34412,20786
34404,20786
34404,20794
34304,20794
34304,20786
33920,20786
33858,20848
33858,21081
33896,21173
33966,21243
33991,21253
33960,21273
33913,21342
33896,21425
33896,21453
33783,21453
33681,21474
33622,21513
33594,21532
32514,22612
32456,22699
32445,22753
32284,22753
32075,22544
32081,22529
32081,22290
31990,22069
31821,21900
31600,21808
31361,21808
31140,21899
30970,22068
30879,22289
30879,22528
30970,22749
31139,22918
31286,22979
31285,22980
31214,23025
31167,23094
31165,23101
31165,23100
31120,23029
31050,22982
30968,22965
30496,22965
30419,22980
30348,23025
30301,23094
30284,23177
30284,23531
30295,23587
30281,23590
30210,23635
30163,23705
30146,23787
30146,24259
30161,24336
30206,24407
30275,24454
30283,24456
30281,24456
30210,24501
30163,24571
30149,24640
30141,24638
30057,24638
30097,24598
30135,24506
30135,24175
30073,24112
29699,24112
29699,24120
29599,24120
29599,24112
29225,24112
29163,24175
29163,24506
29201,24598
29250,24647
29250,24705
29289,24801
29306,24818
29300,24850
29300,25007
29309,25058
29300,25106
29300,25263
29309,25314
29300,25362
29300,25476
29299,25476
29261,25568
29261,25594
29324,25657
29353,25657
29360,25667
29363,25669
29299,25732
29279,25780
29261,25798
29261,25850
29279,25868
29299,25917
29370,25987
29381,25992
29324,25992
29261,26054
29261,26081
29275,26114
29250,26176
29250,26234
29201,26283
29163,26375
29163,26706
29225,26768
29599,26768
29599,26761
29699,26761
29699,26768
30073,26768
30135,26706
30135,26375
30097,26283
30095,26281
30191,26281
30283,26243
30353,26173
30391,26081
30391,26054
30329,25992
30272,25992
30283,25987
30353,25917
30373,25868
30391,25850
30391,25798
30373,25780
30353,25732
30290,25669
30298,25657
30329,25657
30391,25594
30391,25568
30353,25476
30353,25476
30353,25362
30348,25335
30358,25337
30409,25337
30426,25354
30426,27346
30446,27448
30485,27505
30504,27534
30921,27952
30949,27970
31008,28010
31110,28030
32425,28030
32527,28010
32613,27952
33755,26810
33784,26767
33792,26754
33812,26754
33889,26740
33960,26694
34007,26625
34024,26543
34024,25952
34010,25875
33964,25805
33929,25781
33954,25770
34024,25700
34062,25608
34062,25376
34000,25313
33616,25313
33616,25321
33516,25321
33516,25313
33133,25313
33070,25376
33070,25608
33108,25700
33179,25770
33204,25781
33173,25801
33125,25870
33109,25952
33109,25981
33032,25981
33032,25883
33017,25806
32972,25736
32903,25688
32820,25672
32651,25672
32665,25638
32665,25469
32602,25407
32234,25407
32234,25776
32252,25794
32252,26138
32260,26138
32260,26238
32252,26238
32252,26681
32289,26718
32238,26769
32238,27083
32612,27083
32675,27021
32675,26906
32637,26815
32566,26744
32474,26706
32460,26706
32462,26706
32488,26679
32502,26688
32584,26705
32820,26705
32897,26691
32968,26645
33015,26576
33028,26514
33109,26514
33109,26543
33123,26620
33150,26661
32620,27191
32612,27183
32238,27183
32238,27191
32138,27191
32138,27183
32131,27183
32131,27083
32138,27083
32138,26769
32102,26732
32152,26681
32152,26238
32144,26238
32144,26138
32152,26138
32152,25742
32164,25730
32202,25638
32202,25469
32140,25407
31765,25407
31757,25415
31671,25415
31671,25407
31302,25407
31240,25469
31240,25638
31260,25688
31252,25696
31252,26138
31260,26138
31260,26238
31252,26238
31252,26246
31152,26246
31152,26238
31144,26238
31144,26138
31152,26138
31152,25696
31090,25633
31034,25633
30959,25665
30959,25244
30948,25187
30980,25187
31082,25167
31168,25109
31240,25038
31240,25244
31302,25307
31317,25307
31348,25337
31440,25375
31608,25375
31671,25313
31671,25007
31702,25007
31702,25244
31765,25307
31771,25307
31771,25313
31833,25375
32071,25375
32134,25313
32134,25307
32140,25307
32202,25244
32202,25007
32140,24944
32134,24944
32134,24938
32234,24938
32234,25313
32296,25375
32465,25375
32556,25337
32587,25307
32602,25307
32665,25244
32665,25007
32602,24944
32587,24944
32561,24918
33070,24918
33070,25151
33133,25213
33516,25213
33516,24781
33616,24781
33616,25213
34000,25213
34062,25151
34062,24918
34024,24826
33954,24756
33862,24718
33679,24718
33616,24781
33516,24781
33454,24718
33271,24718
33179,24756
33108,24826
33070,24918
32561,24918
32556,24914
32465,24875
32296,24875
32234,24938
32134,24938
32071,24875
31833,24875
31771,24938
31771,24944
31765,24944
31702,25007
31671,25007
31671,24938
31663,24930
31663,24844
31671,24844
31671,24836
31757,24836
31765,24844
32140,24844
32148,24836
32234,24836
32234,24844
32602,24844
32665,24782
32665,24613
32651,24579
32820,24579
32897,24565
32968,24519
33015,24450
33032,24368
33032,23787
34796,25551
34796,26157
34126,26827
34068,26913
34066,26922
33992,26936
33921,26982
33874,27051
33857,27133
33857,27253
32514,28596
32502,28565
32333,28396
32112,28304
31873,28304
31652,28395
31482,28564
31391,28785
31390,29024
31482,29245
31508,29271
31451,29328
31451,29623
31766,29623
31828,29560
31828,29488
31872,29506
32111,29506
32332,29415
32501,29246
32532,29172
32582,29172
32684,29151
32771,29093
33339,28525
33818,28525
33818,28758
33856,28850
33927,28920
34019,28958
34202,28958
34264,28896
34264,28463
33881,28463
33818,28525
33339,28525
33834,28030
33818,28068
33818,28300
33881,28363
34264,28363
34264,28355
34364,28355
34364,28363
34372,28363
34372,28463
34364,28463
34364,28896
34427,28958
34610,28958
34694,28923
34694,29083
34732,29175
34803,29245
34895,29283
35127,29283
35190,29220
35190,28837
35182,28837
35182,28737
35190,28737
35190,28729
35290,28729
35290,28737
35298,28737
35298,28837
35290,28837
35290,29220
35352,29283
35371,29283
35099,29555
35025,29524
34786,29524
34565,29616
34396,29784
34304,30005
34304,30245
34395,30466
34564,30635
34785,30727
35024,30727
35245,30635
35414,30466
35506,30246
35506,30006
35476,29932
36163,29245
36519,29245
36596,29230
36667,29185
36714,29115
36731,29033
36731,28677
36865,28542
36867,28540
36923,28456
36943,28354
36943,27606
36923,27504
36865,27417
36609,27161
36602,27157
36523,27104
36421,27083
36413,27083
36407,27074
36338,27027
36255,27010
36035,27010
37001,26045
37001,29306
36863,29444
36679,29367
36361,29367
36068,29488
35843,29712
35721,30005
35721,30323
35842,30616
36067,30841
36360,30963
36677,30963
36971,30842
37195,30617
37263,30454
37367,30454
37377,30710
37456,30903
37561,30942
37945,30559
38086,30559
38469,30942
38574,30903
38663,30663
38654,30407
38627,30343
39560,30343
39666,30600
39863,30797
40120,30904
40398,30904
40655,30798
40852,30601
40959,30344
40959,30066
40853,29808
40656,29611
40399,29505
40121,29504
39864,29611
39667,29807
39560,30064
39560,30343
38627,30343
38574,30214
38469,30176
38086,30559
37945,30559
37561,30176
37456,30214
37367,30454
37263,30454
37317,30324
37317,30007
37240,29821
37414,29647
37414,29654
37505,29875
37660,30030
37632,30105
38015,30488
38398,30105
38371,30030
38525,29876
38616,29655
38617,29416
38525,29195
38356,29026
38282,28995
38282,28819
38387,28714
38443,28629
38445,28627
38465,28525
38465,26074
38615,26224
38615,26856
38608,26858
38537,26903
38490,26972
38473,27055
38473,27842
38487,27919
38533,27990
38602,28037
38685,28054
39078,28054
39155,28039
39226,27994
39256,27950
39281,27990
39350,28037
39433,28054
39826,28054
39903,28039
39974,27994
40021,27924
40038,27842
40038,27055
40023,26978
39978,26907
39909,26860
39880,26854
39876,26835
39818,26748
39542,26472
39542,26222
39655,26222
39655,26337
39693,26429
39763,26499
39855,26537
40029,26537
40091,26474
40091,26160
39718,26160
39655,26222
39542,26222
39542,26070
39521,25968
39484,25913
39464,25883
39655,25883
39655,25997
39718,26060
40091,26060
40091,25745
40029,25683
39855,25683
39763,25721
39693,25791
39655,25883
39464,25883
39464,25882
38977,25395
38977,25278
39045,25278
39122,25264
39192,25218
39240,25149
39242,25136
39445,25136
39445,25271
39460,25348
39505,25419
39575,25466
39657,25483
40051,25483
40128,25468
40198,25423
40246,25353
40262,25271
40262,24484
40248,24407
40202,24336
40133,24289
40051,24272
39657,24272
39580,24287
39509,24332
39462,24401
39445,24484
39445,24603
39243,24603
39242,24596
39196,24525
39127,24478
39045,24461
38887,24461
38836,24471
38789,24461
38631,24461
38580,24471
38533,24461
38375,24461
38324,24471
38277,24461
38120,24461
38069,24471
38021,24461
37864,24461
37813,24471
37765,24461
37608,24461
37557,24471
37509,24461
37352,24461
37301,24471
37253,24461
37096,24461
37045,24471
36998,24461
36840,24461
36789,24471
36742,24461
36584,24461
36507,24476
36478,24494
36435,24427
36365,24379
36283,24363
35496,24363
35419,24377
35348,24423
35301,24492
35284,24574
35284,24968
35298,25045
35344,25116
35413,25163
35496,25180
36283,25180
36360,25165
36389,25146
36433,25214
36502,25261
36584,25278
36742,25278
36793,25268
36840,25278
36908,25278
36908,25383
35583,26709
35583,26709
35425,26866
35367,26953
35356,27010
34972,27010
34895,27025
34824,27070
34816,27083
34763,27083
34758,27056
34716,26991
35251,26456
35309,26369
35329,26267
35329,25440
35309,25338
35251,25252
33282,23283
33262,23270
33196,23226
33094,23205
33028,23205
33028,23078
33003,22954
32972,22908
33893,21987
33896,21987
33896,22015
33911,22092
33956,22163
34025,22210
34108,22227
34600,22227
34677,22212
34747,22167
34795,22098
34799,22076
34842,22143
34911,22190
34994,22207
35276,22207
35209,22368
35209,22607
35301,22828
35470,22997
35690,23089
35930,23089
36151,22998
36320,22829
36351,22754
36373,22754
36373,22783
36387,22860
36433,22930
36502,22978
36584,22995
36742,22995
36793,22985
36840,22995
36998,22995
37049,22985
37096,22995
37210,22995
37210,22995
37302,23033
37329,23033
37391,22970
37391,22941
37401,22935
37431,22891
37456,22930
37470,22940
37470,22970
37532,23033
37559,23033
37651,22995
37651,22995
37765,22995
37816,22985
37864,22995
38021,22995
38072,22985
38120,22995
38277,22995
38328,22985
38375,22995
38533,22995
38584,22985
38631,22995
38700,22995
38700,23001
38102,23599
35124,23599
34637,23168
34605,23150
34570,23114
34601,23041
34601,22802
34509,22581
34340,22411
34120,22320
33880,22319
33659,22411
33490,22580
33398,22801
33398,23040
33490,23261
33659,23430
33879,23522
34119,23522
34193,23491
34258,23556
34311,23591
34847,24065
34885,24087
34921,24112
34929,24113
34936,24118
34980,24124
35023,24132
38212,24132
38314,24112
38401,24054
39155,23300
39156,23298
39212,23214
39233,23112
39233,22876
39240,22865
39256,22783
39256,22479
39991,22479
40268,22755
40820,23307
40820,24050
40753,24062
40683,24108
40635,24177
40619,24259
40619,24732
40633,24809
40679,24879
40748,24927
40755,24928
40753,24928
40683,24974
40635,25043
40619,25125
40619,25598
40633,25675
40679,25745
40679,25746
40624,25781
40600,25816
40589,25791
40519,25721
40427,25683
40254,25683
40191,25745
40191,26060
40199,26060
40199,26160
40191,26160
40191,26474
40254,26537
40427,26537
40519,26499
40589,26429
40600,26404
40620,26434
40689,26482
40741,26492
40741,28629
40761,28731
40811,28807
40819,28818
41296,29295
41296,31259
27796,31259
27796,31012
37632,31012
37671,31117
37911,31207
38167,31197
38359,31117
38398,31012
38015,30629
37632,31012
27796,31012
27796,30561
27819,30618
28046,30854
28346,30986
28477,30941
28477,30215
28577,30215
28577,30941
28708,30986
29008,30854
29235,30618
29348,30345
29304,30215
28577,30215
28477,30215
28469,30215
28469,30115
28477,30115
28477,29388
28577,29388
28577,30115
29304,30115
29348,29984
29235,29712
29008,29476
28708,29344
28577,29388
28477,29388
28346,29344
28046,29476
27819,29712
27796,29768
27796,28511
29812,28511
29812,29299
29826,29376
29871,29446
29941,29494
30023,29510
30161,29510
30171,29558
30181,29574
30228,29645
30309,29725
30289,29738
30242,29807
30225,29889
30225,30204
30239,30281
30285,30352
30354,30399
30437,30416
30791,30416
30868,30401
30938,30356
30986,30287
31002,30204
31002,29949
31012,29972
31082,30042
31144,30068
31076,30112
31029,30181
31012,30263
31012,30578
31027,30655
31072,30726
31142,30773
31224,30790
31578,30790
31655,30775
31726,30730
31755,30687
32169,30687
32271,30667
32357,30609
32574,30392
32987,30392
33017,30466
33186,30635
33407,30727
33646,30727
33867,30635
34036,30466
34128,30246
34128,30006
34037,29785
33868,29616
33647,29524
33408,29524
33187,29616
33018,29784
32987,29859
32464,29859
32362,29879
32302,29920
32276,29937
32058,30154
31755,30154
31730,30116
31661,30068
31658,30068
31720,30042
31790,29972
31828,29880
31828,29785
31766,29723
31451,29723
31451,29731
31351,29731
31351,29723
31036,29723
30974,29785
30974,29791
30942,29742
30880,29699
30880,29653
30874,29623
30860,29551
30830,29507
30887,29496
30934,29466
30974,29466
30974,29560
31036,29623
31351,29623
31351,29328
31289,29265
31174,29265
31082,29303
31012,29374
30974,29466
30934,29466
30958,29450
31005,29381
31022,29299
31022,28511
31008,28434
30962,28364
30893,28316
30811,28300
30023,28300
29946,28314
29876,28360
29828,28429
29812,28511
27796,28511
27796,26931
28179,26931
28179,27262
28217,27354
28287,27424
28379,27462
28552,27462
28615,27400
28615,26868
28715,26868
28715,27400
28777,27462
28951,27462
29043,27424
29113,27354
29151,27262
29151,26931
29163,26931
29163,27262
29201,27354
29271,27424
29363,27462
29537,27462
29599,27400
29599,26868
29699,26868
29699,27400
29762,27462
29935,27462
30027,27424
30097,27354
30135,27262
30135,26931
30073,26868
29699,26868
29599,26868
29225,26868
29163,26931
29151,26931
29089,26868
28715,26868
28615,26868
28241,26868
28179,26931
27796,26931
27796,26323
27823,26389
27893,26459
27985,26498
28119,26498
28179,26438
28179,26706
28241,26768
28615,26768
28615,26761
28715,26761
28715,26768
29089,26768
29151,26706
29151,26375
29113,26283
29043,26213
28951,26175
28777,26175
28715,26237
28715,26175
28679,26175
28679,26143
28616,26081
28282,26081
28282,26089
28182,26089
28182,26081
28174,26081
28174,25981
28182,25981
28182,25627
28282,25627
28282,25981
28616,25981
28679,25918
28679,25765
28641,25673
28570,25603
28478,25564
28344,25564
28282,25627
28182,25627
28119,25564
27985,25564
27893,25603
27823,25673
27796,25739
27796,25142
27823,25208
27893,25278
27985,25316
28119,25316
28182,25254
28182,24900
28282,24900
28282,25254
28344,25316
28478,25316
28570,25278
28641,25208
28679,25116
28679,24962
28616,24900
28282,24900
28182,24900
28174,24900
28174,24800
28182,24800
28182,24792
28282,24792
28282,24800
28616,24800
28679,24737
28679,24706
28715,24706
28715,24644
28777,24706
28951,24706
29043,24668
29113,24598
29151,24506
29151,24175
29089,24112
28715,24112
28715,24120
28615,24120
28615,24112
28241,24112
28179,24175
28179,24443
28119,24383
27985,24383
27893,24421
27823,24492
27796,24558
27796,23619
28179,23619
28179,23950
28241,24012
28615,24012
28615,23481
28715,23481
28715,24012
29089,24012
29151,23950
29151,23619
29163,23619
29163,23950
29225,24012
29599,24012
29599,23481
29699,23481
29699,24012
30073,24012
30135,23950
30135,23619
30097,23527
30027,23457
29935,23419
29762,23419
29699,23481
29599,23481
29537,23419
29363,23419
29271,23457
29201,23527
29163,23619
29151,23619
29113,23527
29043,23457
28951,23419
28777,23419
28715,23481
28615,23481
28552,23419
28379,23419
28287,23457
28217,23527
28179,23619
27796,23619
27796,21694
28312,21694
28418,21924
28604,22097
28794,22175
28894,22128
28894,21593
28359,21593
28312,21694
27796,21694
27796,21392
28312,21392
28359,21493
28894,21493
28894,20957
28994,20957
28994,21493
29002,21493
29002,21593
28994,21593
28994,22128
29095,22175
29285,22097
29355,22032
29393,22090
29462,22138
29544,22154
30344,22154
30421,22140
30492,22094
30539,22025
30556,21943
30556,21143
30546,21091
31686,21091
31792,21348
31989,21545
32246,21652
32524,21652
32781,21546
32978,21349
33085,21092
33085,20814
32979,20556
32813,20391
33858,20391
33858,20623
33920,20686
34304,20686
34304,20253
34241,20190
34058,20190
33966,20229
33896,20299
33858,20391
32813,20391
32782,20360
32525,20253
32247,20253
31990,20359
31793,20555
31686,20812
31686,21091
30546,21091
30541,21066
30496,20995
30427,20948
30344,20931
29544,20931
29467,20946
29397,20991
29354,21053
29285,20989
29095,20911
28994,20957
28894,20957
28794,20911
28604,20989
28418,21162
28312,21392
27796,21392
27796,19922
35454,19922
35431,19945
" /> 
<polyline style="fill-rule:evenodd;"
points="35238,27758
35123,27758
35123,27689
35238,27689
35238,27758
" /> 
<polyline style="fill-rule:evenodd;"
points="29876,25963
29905,25992
29876,25992
29876,26010
29776,26010
29776,25992
29747,25992
29776,25963
29776,25894
29876,25894
29876,25963
" /> 
</g>
<g style="fill:#FFFFFF; fill-opacity:1.0; 
stroke:#FFFFFF; stroke-width:100; stroke-opacity:1; 
stroke-linecap:round; stroke-linejoin:round;">
</g>
<g style="fill:#FFFFFF; fill-opacity:1.0; 
stroke:#FFFFFF; stroke-width:0; stroke-opacity:1; 
stroke-linecap:round; stroke-linejoin:round;">
<circle cx="31480.3" cy="22409.4" r="68.8976" /> 
</g>
<g style="fill:#FFFFFF; fill-opacity:1.0; 
stroke:#FFFFFF; stroke-width:39.3701; stroke-opacity:1; 
stroke-linecap:round; stroke-linejoin:round;">
</g>
<g style="fill:#FFFFFF; fill-opacity:1.0; 
stroke:#FFFFFF; stroke-width:0; stroke-opacity:1; 
stroke-linecap:round; stroke-linejoin:round;">
<circle cx="43212.6" cy="30480.3" r="68.8976" /> 
</g>
<g style="fill:#FFFFFF; fill-opacity:1.0; 
stroke:#FFFFFF; stroke-width:39.3701; stroke-opacity:1; 
stroke-linecap:round; stroke-linejoin:round;">
</g>
<g style="fill:#FFFFFF; fill-opacity:1.0; 
stroke:#FFFFFF; stroke-width:0; stroke-opacity:1; 
stroke-linecap:round; stroke-linejoin:round;">
<circle cx="35811" cy="22488.2" r="68.8976" /> 
</g>
<g style="fill:#FFFFFF; fill-opacity:1.0; 
stroke:#FFFFFF; stroke-width:39.3701; stroke-opacity:1; 
stroke-linecap:round; stroke-linejoin:round;">
</g>
<g style="fill:#FFFFFF; fill-opacity:1.0; 
stroke:#FFFFFF; stroke-width:0; stroke-opacity:1; 
stroke-linecap:round; stroke-linejoin:round;">
<circle cx="40850.4" cy="20716.5" r="68.8976" /> 
</g>
<g style="fill:#FFFFFF; fill-opacity:1.0; 
stroke:#FFFFFF; stroke-width:39.3701; stroke-opacity:1; 
stroke-linecap:round; stroke-linejoin:round;">
</g>
<g style="fill:#FFFFFF; fill-opacity:1.0; 
stroke:#FFFFFF; stroke-width:0; stroke-opacity:1; 
stroke-linecap:round; stroke-linejoin:round;">
<circle cx="34905.5" cy="30126" r="68.8976" /> 
</g>
<g style="fill:#FFFFFF; fill-opacity:1.0; 
stroke:#FFFFFF; stroke-width:39.3701; stroke-opacity:1; 
stroke-linecap:round; stroke-linejoin:round;">
</g>
<g style="fill:#FFFFFF; fill-opacity:1.0; 
stroke:#FFFFFF; stroke-width:0; stroke-opacity:1; 
stroke-linecap:round; stroke-linejoin:round;">
<circle cx="33527.6" cy="30126" r="68.8976" /> 
</g>
<g style="fill:#FFFFFF; fill-opacity:1.0; 
stroke:#FFFFFF; stroke-width:39.3701; stroke-opacity:1; 
stroke-linecap:round; stroke-linejoin:round;">
</g>
<g style="fill:#FFFFFF; fill-opacity:1.0; 
stroke:#FFFFFF; stroke-width:0; stroke-opacity:1; 
stroke-linecap:round; stroke-linejoin:round;">
<circle cx="34000" cy="22921.3" r="68.8976" /> 
</g>
<g style="fill:#FFFFFF; fill-opacity:1.0; 
stroke:#FFFFFF; stroke-width:39.3701; stroke-opacity:1; 
stroke-linecap:round; stroke-linejoin:round;">
</g>
<g style="fill:#FFFFFF; fill-opacity:1.0; 
stroke:#FFFFFF; stroke-width:0; stroke-opacity:1; 
stroke-linecap:round; stroke-linejoin:round;">
<circle cx="41952.8" cy="30480.3" r="68.8976" /> 
</g>
<g style="fill:#FFFFFF; fill-opacity:1.0; 
stroke:#FFFFFF; stroke-width:39.3701; stroke-opacity:1; 
stroke-linecap:round; stroke-linejoin:round;">
</g>
<g style="fill:#FFFFFF; fill-opacity:1.0; 
stroke:#FFFFFF; stroke-width:0; stroke-opacity:1; 
stroke-linecap:round; stroke-linejoin:round;">
<circle cx="40259.8" cy="30204.7" r="39.3701" /> 
</g>
<g style="fill:#FFFFFF; fill-opacity:1.0; 
stroke:#FFFFFF; stroke-width:39.3701; stroke-opacity:1; 
stroke-linecap:round; stroke-linejoin:round;">
</g>
<g style="fill:#FFFFFF; fill-opacity:1.0; 
stroke:#FFFFFF; stroke-width:0; stroke-opacity:1; 
stroke-linecap:round; stroke-linejoin:round;">
<circle cx="32385.8" cy="20952.8" r="39.3701" /> 
</g>
<g style="fill:#FFFFFF; fill-opacity:1.0; 
stroke:#FFFFFF; stroke-width:39.3701; stroke-opacity:1; 
stroke-linecap:round; stroke-linejoin:round;">
</g>
<g style="fill:#FFFFFF; fill-opacity:1.0; 
stroke:#FFFFFF; stroke-width:0; stroke-opacity:1; 
stroke-linecap:round; stroke-linejoin:round;">
<circle cx="29944.9" cy="21543.3" r="68.8976" /> 
</g>
<g style="fill:#FFFFFF; fill-opacity:1.0; 
stroke:#FFFFFF; stroke-width:39.3701; stroke-opacity:1; 
stroke-linecap:round; stroke-linejoin:round;">
</g>
<g style="fill:#FFFFFF; fill-opacity:1.0; 
stroke:#FFFFFF; stroke-width:0; stroke-opacity:1; 
stroke-linecap:round; stroke-linejoin:round;">
<circle cx="28944.9" cy="21543.3" r="68.8976" /> 
</g>
<g style="fill:#FFFFFF; fill-opacity:1.0; 
stroke:#FFFFFF; stroke-width:39.3701; stroke-opacity:1; 
stroke-linecap:round; stroke-linejoin:round;">
</g>
<g style="fill:#FFFFFF; fill-opacity:1.0; 
stroke:#FFFFFF; stroke-width:0; stroke-opacity:1; 
stroke-linecap:round; stroke-linejoin:round;">
<circle cx="38015.7" cy="30559.1" r="68.8976" /> 
</g>
<g style="fill:#FFFFFF; fill-opacity:1.0; 
stroke:#FFFFFF; stroke-width:39.3701; stroke-opacity:1; 
stroke-linecap:round; stroke-linejoin:round;">
</g>
<g style="fill:#FFFFFF; fill-opacity:1.0; 
stroke:#FFFFFF; stroke-width:0; stroke-opacity:1; 
stroke-linecap:round; stroke-linejoin:round;">
<circle cx="38015.7" cy="29535.4" r="68.8976" /> 
</g>
<g style="fill:#FFFFFF; fill-opacity:1.0; 
stroke:#FFFFFF; stroke-width:39.3701; stroke-opacity:1; 
stroke-linecap:round; stroke-linejoin:round;">
</g>
<g style="fill:#FFFFFF; fill-opacity:1.0; 
stroke:#FFFFFF; stroke-width:0; stroke-opacity:1; 
stroke-linecap:round; stroke-linejoin:round;">
<circle cx="36519.7" cy="30165.4" r="68.8976" /> 
</g>
<g style="fill:#FFFFFF; fill-opacity:1.0; 
stroke:#FFFFFF; stroke-width:39.3701; stroke-opacity:1; 
stroke-linecap:round; stroke-linejoin:round;">
</g>
<g style="fill:#FFFFFF; fill-opacity:1.0; 
stroke:#FFFFFF; stroke-width:0; stroke-opacity:1; 
stroke-linecap:round; stroke-linejoin:round;">
<circle cx="28527.6" cy="30165.4" r="68.8976" /> 
</g>
<g style="fill:#FFFFFF; fill-opacity:1.0; 
stroke:#FFFFFF; stroke-width:39.3701; stroke-opacity:1; 
stroke-linecap:round; stroke-linejoin:round;">
</g>
<g style="fill:#FFFFFF; fill-opacity:1.0; 
stroke:#FFFFFF; stroke-width:0; stroke-opacity:1; 
stroke-linecap:round; stroke-linejoin:round;">
<circle cx="39039.4" cy="20913.4" r="68.8976" /> 
</g>
<g style="fill:#FFFFFF; fill-opacity:1.0; 
stroke:#FFFFFF; stroke-width:39.3701; stroke-opacity:1; 
stroke-linecap:round; stroke-linejoin:round;">
</g>
<g style="fill:#FFFFFF; fill-opacity:1.0; 
stroke:#FFFFFF; stroke-width:0; stroke-opacity:1; 
stroke-linecap:round; stroke-linejoin:round;">
<circle cx="37118.1" cy="20913.4" r="68.8976" /> 
</g>
<g style="fill:#FFFFFF; fill-opacity:1.0; 
stroke:#FFFFFF; stroke-width:39.3701; stroke-opacity:1; 
stroke-linecap:round; stroke-linejoin:round;">
</g>
<g style="fill:#FFFFFF; fill-opacity:1.0; 
stroke:#FFFFFF; stroke-width:0; stroke-opacity:1; 
stroke-linecap:round; stroke-linejoin:round;">
<circle cx="29511.8" cy="24653.5" r="19.685" /> 
</g>
<g style="fill:#FFFFFF; fill-opacity:1.0; 
stroke:#FFFFFF; stroke-width:39.3701; stroke-opacity:1; 
stroke-linecap:round; stroke-linejoin:round;">
</g>
<g style="fill:#FFFFFF; fill-opacity:1.0; 
stroke:#FFFFFF; stroke-width:0; stroke-opacity:1; 
stroke-linecap:round; stroke-linejoin:round;">
<circle cx="29511.8" cy="26228.3" r="19.685" /> 
</g>
<g style="fill:#FFFFFF; fill-opacity:1.0; 
stroke:#FFFFFF; stroke-width:39.3701; stroke-opacity:1; 
stroke-linecap:round; stroke-linejoin:round;">
</g>
<g style="fill:#FFFFFF; fill-opacity:1.0; 
stroke:#FFFFFF; stroke-width:0; stroke-opacity:1; 
stroke-linecap:round; stroke-linejoin:round;">
<circle cx="44295.3" cy="21779.5" r="68.8976" /> 
</g>
<g style="fill:#FFFFFF; fill-opacity:1.0; 
stroke:#FFFFFF; stroke-width:39.3701; stroke-opacity:1; 
stroke-linecap:round; stroke-linejoin:round;">
</g>
<g style="fill:#FFFFFF; fill-opacity:1.0; 
stroke:#FFFFFF; stroke-width:0; stroke-opacity:1; 
stroke-linecap:round; stroke-linejoin:round;">
<circle cx="41539.4" cy="21779.5" r="68.8976" /> 
</g>
<g style="fill:#FFFFFF; fill-opacity:1.0; 
stroke:#FFFFFF; stroke-width:39.3701; stroke-opacity:1; 
stroke-linecap:round; stroke-linejoin:round;">
</g>
<g style="fill:#FFFFFF; fill-opacity:1.0; 
stroke:#FFFFFF; stroke-width:0; stroke-opacity:1; 
stroke-linecap:round; stroke-linejoin:round;">
<circle cx="43803.1" cy="20795.3" r="68.8976" /> 
</g>
<g style="fill:#FFFFFF; fill-opacity:1.0; 
stroke:#FFFFFF; stroke-width:39.3701; stroke-opacity:1; 
stroke-linecap:round; stroke-linejoin:round;">
</g>
<g style="fill:#FFFFFF; fill-opacity:1.0; 
stroke:#FFFFFF; stroke-width:0; stroke-opacity:1; 
stroke-linecap:round; stroke-linejoin:round;">
<circle cx="42031.5" cy="20795.3" r="68.8976" /> 
</g>
<g style="fill:#FFFFFF; fill-opacity:1.0; 
stroke:#FFFFFF; stroke-width:39.3701; stroke-opacity:1; 
stroke-linecap:round; stroke-linejoin:round;">
</g>
<g style="fill:#FFFFFF; fill-opacity:1.0; 
stroke:#FFFFFF; stroke-width:0; stroke-opacity:1; 
stroke-linecap:round; stroke-linejoin:round;">
<circle cx="30417.3" cy="28905.5" r="68.8976" /> 
</g>
<g style="fill:#FFFFFF; fill-opacity:1.0; 
stroke:#FFFFFF; stroke-width:39.3701; stroke-opacity:1; 
stroke-linecap:round; stroke-linejoin:round;">
</g>
<g style="fill:#FFFFFF; fill-opacity:1.0; 
stroke:#FFFFFF; stroke-width:0; stroke-opacity:1; 
stroke-linecap:round; stroke-linejoin:round;">
<circle cx="31992.1" cy="28905.5" r="68.8976" /> 
</g>
<g style="fill:#FFFFFF; fill-opacity:1.0; 
stroke:#FFFFFF; stroke-width:39.3701; stroke-opacity:1; 
stroke-linecap:round; stroke-linejoin:round;">
</g>
<g style="fill:#000000; fill-opacity:1.0; 
stroke:#000000; stroke-width:39.3701; stroke-opacity:1; 
stroke-linecap:round; stroke-linejoin:round;">
</g> 
</svg>
