<?xml version="1.0" standalone="no"?>
 <!DOCTYPE svg PUBLIC "-//W3C//DTD SVG 1.1//EN" 
 "http://www.w3.org/Graphics/SVG/1.1/DTD/svg11.dtd"> 
<svg xmlns="http://www.w3.org/2000/svg" version="1.1" 
    width="29.7002cm" height="21.0007cm" viewBox="0 0 116930 82680 ">
<title>SVG Picture created as velocomp-B.Cu.svg date 2018/03/28 11:10:24 </title>
  <desc>Picture generated by PCBNEW </desc>
<g style="fill:#000000; fill-opacity:1;stroke:#000000; stroke-opacity:1;
stroke-linecap:round; stroke-linejoin:round; "
 transform="translate(0 0) scale(1 1)">
</g>
<g style="fill:#000000; fill-opacity:0.0; 
stroke:#000000; stroke-width:-0.000393701; stroke-opacity:1; 
stroke-linecap:round; stroke-linejoin:round;">
</g>
<g style="fill:#000000; fill-opacity:1.0; 
stroke:#000000; stroke-width:0; stroke-opacity:1; 
stroke-linecap:round; stroke-linejoin:round;">
<circle cx="40259.8" cy="30204.7" r="492.126" /> 
</g>
<g style="fill:#000000; fill-opacity:1.0; 
stroke:#000000; stroke-width:39.3701; stroke-opacity:1; 
stroke-linecap:round; stroke-linejoin:round;">
</g>
<g style="fill:#000000; fill-opacity:1.0; 
stroke:#000000; stroke-width:0; stroke-opacity:1; 
stroke-linecap:round; stroke-linejoin:round;">
<circle cx="32385.8" cy="20952.8" r="492.126" /> 
</g>
<g style="fill:#000000; fill-opacity:1.0; 
stroke:#000000; stroke-width:39.3701; stroke-opacity:1; 
stroke-linecap:round; stroke-linejoin:round;">
</g>
<g style="fill:#000000; fill-opacity:1.0; 
stroke:#000000; stroke-width:0; stroke-opacity:1; 
stroke-linecap:round; stroke-linejoin:round;">
<polyline style="fill-rule:evenodd;"
points="30344,21943
29544,21943
29544,21143
30344,21143
30344,21943
" /> 
</g>
<g style="fill:#000000; fill-opacity:1.0; 
stroke:#000000; stroke-width:800; stroke-opacity:1; 
stroke-linecap:round; stroke-linejoin:round;">
</g>
<g style="fill:#000000; fill-opacity:0.0; 
stroke:#000000; stroke-width:800; stroke-opacity:1; 
stroke-linecap:round; stroke-linejoin:round;">
<path d="M28944 21543
L28944 21543
" />
</g>
<g style="fill:#000000; fill-opacity:0.0; 
stroke:#000000; stroke-width:0; stroke-opacity:1; 
stroke-linecap:round; stroke-linejoin:round;">
</g>
<g style="fill:#000000; fill-opacity:1.0; 
stroke:#000000; stroke-width:0; stroke-opacity:1; 
stroke-linecap:round; stroke-linejoin:round;">
<polyline style="fill-rule:evenodd;"
points="35062,23586
34629,23586
34629,22996
35062,22996
35062,23586
" /> 
<polyline style="fill-rule:evenodd;"
points="35653,23586
35220,23586
35220,22996
35653,22996
35653,23586
" /> 
<polyline style="fill-rule:evenodd;"
points="37425,23586
36992,23586
36992,22996
37425,22996
37425,23586
" /> 
<polyline style="fill-rule:evenodd;"
points="36244,23586
35811,23586
35811,22996
36244,22996
36244,23586
" /> 
<polyline style="fill-rule:evenodd;"
points="36834,23586
36401,23586
36401,22996
36834,22996
36834,23586
" /> 
<polyline style="fill-rule:evenodd;"
points="39787,23586
39354,23586
39354,22996
39787,22996
39787,23586
" /> 
<polyline style="fill-rule:evenodd;"
points="39196,23586
38763,23586
38763,22996
39196,22996
39196,23586
" /> 
<polyline style="fill-rule:evenodd;"
points="40377,23586
39944,23586
39944,22996
40377,22996
40377,23586
" /> 
<polyline style="fill-rule:evenodd;"
points="38606,23586
38173,23586
38173,22996
38606,22996
38606,23586
" /> 
<polyline style="fill-rule:evenodd;"
points="38015,23586
37582,23586
37582,22996
38015,22996
38015,23586
" /> 
<polyline style="fill-rule:evenodd;"
points="42149,23586
41716,23586
41716,22996
42149,22996
42149,23586
" /> 
<polyline style="fill-rule:evenodd;"
points="40968,23586
40535,23586
40535,22996
40968,22996
40968,23586
" /> 
<polyline style="fill-rule:evenodd;"
points="41559,23586
41125,23586
41125,22996
41559,22996
41559,23586
" /> 
<polyline style="fill-rule:evenodd;"
points="41559,28744
41125,28744
41125,28153
41559,28153
41559,28744
" /> 
<polyline style="fill-rule:evenodd;"
points="40968,28744
40535,28744
40535,28153
40968,28153
40968,28744
" /> 
<polyline style="fill-rule:evenodd;"
points="42149,28744
41716,28744
41716,28153
42149,28153
42149,28744
" /> 
<polyline style="fill-rule:evenodd;"
points="38015,28744
37582,28744
37582,28153
38015,28153
38015,28744
" /> 
<polyline style="fill-rule:evenodd;"
points="38606,28744
38173,28744
38173,28153
38606,28153
38606,28744
" /> 
<polyline style="fill-rule:evenodd;"
points="40377,28744
39944,28744
39944,28153
40377,28153
40377,28744
" /> 
<polyline style="fill-rule:evenodd;"
points="39196,28744
38763,28744
38763,28153
39196,28153
39196,28744
" /> 
<polyline style="fill-rule:evenodd;"
points="39787,28744
39354,28744
39354,28153
39787,28153
39787,28744
" /> 
<polyline style="fill-rule:evenodd;"
points="36834,28744
36401,28744
36401,28153
36834,28153
36834,28744
" /> 
<polyline style="fill-rule:evenodd;"
points="36244,28744
35811,28744
35811,28153
36244,28153
36244,28744
" /> 
<polyline style="fill-rule:evenodd;"
points="37425,28744
36992,28744
36992,28153
37425,28153
37425,28744
" /> 
<polyline style="fill-rule:evenodd;"
points="35653,28744
35220,28744
35220,28153
35653,28153
35653,28744
" /> 
<polyline style="fill-rule:evenodd;"
points="34551,24019
33960,24019
33960,23586
34551,23586
34551,24019
" /> 
<polyline style="fill-rule:evenodd;"
points="34551,24610
33960,24610
33960,24177
34551,24177
34551,24610
" /> 
<polyline style="fill-rule:evenodd;"
points="34551,25200
33960,25200
33960,24767
34551,24767
34551,25200
" /> 
<polyline style="fill-rule:evenodd;"
points="34551,25791
33960,25791
33960,25358
34551,25358
34551,25791
" /> 
<polyline style="fill-rule:evenodd;"
points="34551,28153
33960,28153
33960,27720
34551,27720
34551,28153
" /> 
<polyline style="fill-rule:evenodd;"
points="34551,27562
33960,27562
33960,27129
34551,27129
34551,27562
" /> 
<polyline style="fill-rule:evenodd;"
points="34551,26972
33960,26972
33960,26539
34551,26539
34551,26972
" /> 
<polyline style="fill-rule:evenodd;"
points="35062,28744
34629,28744
34629,28153
35062,28153
35062,28744
" /> 
<polyline style="fill-rule:evenodd;"
points="34551,26381
33960,26381
33960,25948
34551,25948
34551,26381
" /> 
<circle cx="38015.7" cy="30559.1" r="393.701" /> 
</g>
<g style="fill:#000000; fill-opacity:1.0; 
stroke:#000000; stroke-width:39.3701; stroke-opacity:1; 
stroke-linecap:round; stroke-linejoin:round;">
</g>
<g style="fill:#000000; fill-opacity:1.0; 
stroke:#000000; stroke-width:0; stroke-opacity:1; 
stroke-linecap:round; stroke-linejoin:round;">
<circle cx="38015.7" cy="29535.4" r="393.701" /> 
</g>
<g style="fill:#000000; fill-opacity:1.0; 
stroke:#000000; stroke-width:39.3701; stroke-opacity:1; 
stroke-linecap:round; stroke-linejoin:round;">
</g>
<g style="fill:#000000; fill-opacity:1.0; 
stroke:#000000; stroke-width:0; stroke-opacity:1; 
stroke-linecap:round; stroke-linejoin:round;">
<circle cx="36519.7" cy="30165.4" r="590.551" /> 
</g>
<g style="fill:#000000; fill-opacity:1.0; 
stroke:#000000; stroke-width:39.3701; stroke-opacity:1; 
stroke-linecap:round; stroke-linejoin:round;">
</g>
<g style="fill:#000000; fill-opacity:1.0; 
stroke:#000000; stroke-width:1181.1; stroke-opacity:1; 
stroke-linecap:round; stroke-linejoin:round;">
</g>
<g style="fill:#000000; fill-opacity:0.0; 
stroke:#000000; stroke-width:1181.1; stroke-opacity:1; 
stroke-linecap:round; stroke-linejoin:round;">
<path d="M28527 30165
L28527 30165
" />
</g>
<g style="fill:#000000; fill-opacity:1.0; 
stroke:#000000; stroke-width:0; stroke-opacity:1; 
stroke-linecap:round; stroke-linejoin:round;">
<circle cx="39039.4" cy="20913.4" r="295.276" /> 
</g>
<g style="fill:#000000; fill-opacity:1.0; 
stroke:#000000; stroke-width:39.3701; stroke-opacity:1; 
stroke-linecap:round; stroke-linejoin:round;">
</g>
<g style="fill:#000000; fill-opacity:1.0; 
stroke:#000000; stroke-width:0; stroke-opacity:1; 
stroke-linecap:round; stroke-linejoin:round;">
<circle cx="37118.1" cy="20913.4" r="295.276" /> 
</g>
<g style="fill:#000000; fill-opacity:1.0; 
stroke:#000000; stroke-width:39.3701; stroke-opacity:1; 
stroke-linecap:round; stroke-linejoin:round;">
</g>
<g style="fill:#000000; fill-opacity:1.0; 
stroke:#000000; stroke-width:0; stroke-opacity:1; 
stroke-linecap:round; stroke-linejoin:round;">
<circle cx="29511.8" cy="24653.5" r="54.1339" /> 
</g>
<g style="fill:#000000; fill-opacity:1.0; 
stroke:#000000; stroke-width:39.3701; stroke-opacity:1; 
stroke-linecap:round; stroke-linejoin:round;">
</g>
<g style="fill:#000000; fill-opacity:1.0; 
stroke:#000000; stroke-width:0; stroke-opacity:1; 
stroke-linecap:round; stroke-linejoin:round;">
<circle cx="29511.8" cy="26228.3" r="54.1339" /> 
</g>
<g style="fill:#000000; fill-opacity:1.0; 
stroke:#000000; stroke-width:39.3701; stroke-opacity:1; 
stroke-linecap:round; stroke-linejoin:round;">
</g>
<g style="fill:#000000; fill-opacity:1.0; 
stroke:#000000; stroke-width:0; stroke-opacity:1; 
stroke-linecap:round; stroke-linejoin:round;">
<circle cx="44295.3" cy="21779.5" r="433.071" /> 
</g>
<g style="fill:#000000; fill-opacity:1.0; 
stroke:#000000; stroke-width:39.3701; stroke-opacity:1; 
stroke-linecap:round; stroke-linejoin:round;">
</g>
<g style="fill:#000000; fill-opacity:1.0; 
stroke:#000000; stroke-width:0; stroke-opacity:1; 
stroke-linecap:round; stroke-linejoin:round;">
<circle cx="41539.4" cy="21779.5" r="433.071" /> 
</g>
<g style="fill:#000000; fill-opacity:1.0; 
stroke:#000000; stroke-width:39.3701; stroke-opacity:1; 
stroke-linecap:round; stroke-linejoin:round;">
</g>
<g style="fill:#000000; fill-opacity:1.0; 
stroke:#000000; stroke-width:0; stroke-opacity:1; 
stroke-linecap:round; stroke-linejoin:round;">
<circle cx="43803.1" cy="20795.3" r="393.701" /> 
</g>
<g style="fill:#000000; fill-opacity:1.0; 
stroke:#000000; stroke-width:39.3701; stroke-opacity:1; 
stroke-linecap:round; stroke-linejoin:round;">
</g>
<g style="fill:#000000; fill-opacity:1.0; 
stroke:#000000; stroke-width:0; stroke-opacity:1; 
stroke-linecap:round; stroke-linejoin:round;">
<circle cx="42031.5" cy="20795.3" r="393.701" /> 
</g>
<g style="fill:#000000; fill-opacity:1.0; 
stroke:#000000; stroke-width:39.3701; stroke-opacity:1; 
stroke-linecap:round; stroke-linejoin:round;">
</g>
<g style="fill:#000000; fill-opacity:1.0; 
stroke:#000000; stroke-width:0; stroke-opacity:1; 
stroke-linecap:round; stroke-linejoin:round;">
<polyline style="fill-rule:evenodd;"
points="30023,29299
30023,28511
30811,28511
30811,29299
30023,29299
" /> 
<circle cx="31992.1" cy="28905.5" r="393.701" /> 
</g>
<g style="fill:#000000; fill-opacity:1.0; 
stroke:#000000; stroke-width:39.3701; stroke-opacity:1; 
stroke-linecap:round; stroke-linejoin:round;">
</g>
<g style="fill:#000000; fill-opacity:1.0; 
stroke:#000000; stroke-width:0; stroke-opacity:1; 
stroke-linecap:round; stroke-linejoin:round;">
<polyline style="fill-rule:evenodd;"
points="33094,26681
33094,27035
32622,27035
32622,26681
33094,26681
" /> 
<polyline style="fill-rule:evenodd;"
points="32228,26681
32228,27035
31755,27035
31755,26681
32228,26681
" /> 
<circle cx="31480.3" cy="22409.4" r="393.701" /> 
</g>
<g style="fill:#000000; fill-opacity:1.0; 
stroke:#000000; stroke-width:39.3701; stroke-opacity:1; 
stroke-linecap:round; stroke-linejoin:round;">
</g>
<g style="fill:#000000; fill-opacity:1.0; 
stroke:#000000; stroke-width:0; stroke-opacity:1; 
stroke-linecap:round; stroke-linejoin:round;">
<circle cx="43212.6" cy="30480.3" r="393.701" /> 
</g>
<g style="fill:#000000; fill-opacity:1.0; 
stroke:#000000; stroke-width:39.3701; stroke-opacity:1; 
stroke-linecap:round; stroke-linejoin:round;">
</g>
<g style="fill:#000000; fill-opacity:1.0; 
stroke:#000000; stroke-width:0; stroke-opacity:1; 
stroke-linecap:round; stroke-linejoin:round;">
<circle cx="35811" cy="22488.2" r="393.701" /> 
</g>
<g style="fill:#000000; fill-opacity:1.0; 
stroke:#000000; stroke-width:39.3701; stroke-opacity:1; 
stroke-linecap:round; stroke-linejoin:round;">
</g>
<g style="fill:#000000; fill-opacity:1.0; 
stroke:#000000; stroke-width:0; stroke-opacity:1; 
stroke-linecap:round; stroke-linejoin:round;">
<circle cx="40850.4" cy="20716.5" r="393.701" /> 
</g>
<g style="fill:#000000; fill-opacity:1.0; 
stroke:#000000; stroke-width:39.3701; stroke-opacity:1; 
stroke-linecap:round; stroke-linejoin:round;">
</g>
<g style="fill:#000000; fill-opacity:1.0; 
stroke:#000000; stroke-width:0; stroke-opacity:1; 
stroke-linecap:round; stroke-linejoin:round;">
<circle cx="34905.5" cy="30126" r="393.701" /> 
</g>
<g style="fill:#000000; fill-opacity:1.0; 
stroke:#000000; stroke-width:39.3701; stroke-opacity:1; 
stroke-linecap:round; stroke-linejoin:round;">
</g>
<g style="fill:#000000; fill-opacity:1.0; 
stroke:#000000; stroke-width:0; stroke-opacity:1; 
stroke-linecap:round; stroke-linejoin:round;">
<circle cx="33527.6" cy="30126" r="393.701" /> 
</g>
<g style="fill:#000000; fill-opacity:1.0; 
stroke:#000000; stroke-width:39.3701; stroke-opacity:1; 
stroke-linecap:round; stroke-linejoin:round;">
</g>
<g style="fill:#000000; fill-opacity:1.0; 
stroke:#000000; stroke-width:0; stroke-opacity:1; 
stroke-linecap:round; stroke-linejoin:round;">
<circle cx="34000" cy="22921.3" r="393.701" /> 
</g>
<g style="fill:#000000; fill-opacity:1.0; 
stroke:#000000; stroke-width:39.3701; stroke-opacity:1; 
stroke-linecap:round; stroke-linejoin:round;">
</g>
<g style="fill:#000000; fill-opacity:1.0; 
stroke:#000000; stroke-width:0; stroke-opacity:1; 
stroke-linecap:round; stroke-linejoin:round;">
<circle cx="41952.8" cy="30480.3" r="393.701" /> 
</g>
<g style="fill:#000000; fill-opacity:1.0; 
stroke:#000000; stroke-width:39.3701; stroke-opacity:1; 
stroke-linecap:round; stroke-linejoin:round;">
</g>
<g style="fill:#000000; fill-opacity:1.0; 
stroke:#000000; stroke-width:78.7402; stroke-opacity:1; 
stroke-linecap:round; stroke-linejoin:round;">
</g>
<g style="fill:#000000; fill-opacity:0.0; 
stroke:#000000; stroke-width:78.7402; stroke-opacity:1; 
stroke-linecap:round; stroke-linejoin:round;">
<path d="M43803 20834
L43803 20669
" />
</g>
<g style="fill:#000000; fill-opacity:0.0; 
stroke:#000000; stroke-width:236.22; stroke-opacity:1; 
stroke-linecap:round; stroke-linejoin:round;">
<path d="M43803 20669
L43263 20129
" />
<path d="M43263 20129
L41358 20129
" />
<path d="M34255 23803
L34334 23803
" />
<path d="M34334 23803
L34846 23291
" />
<path d="M31480 22409
L30141 22409
" />
<path d="M29944 22212
L29944 21543
" />
<path d="M30141 22409
L29944 22212
" />
</g>
<g style="fill:#000000; fill-opacity:0.0; 
stroke:#000000; stroke-width:118.11; stroke-opacity:1; 
stroke-linecap:round; stroke-linejoin:round;">
<path d="M41933 28448
L41933 29161
" />
<path d="M41933 29161
L43212 30440
" />
<path d="M43212 30440
L43212 30480
" />
</g>
<g style="fill:#000000; fill-opacity:0.0; 
stroke:#000000; stroke-width:78.7402; stroke-opacity:1; 
stroke-linecap:round; stroke-linejoin:round;">
<path d="M41933 28448
L41933 28610
" />
</g>
<g style="fill:#000000; fill-opacity:0.0; 
stroke:#000000; stroke-width:236.22; stroke-opacity:1; 
stroke-linecap:round; stroke-linejoin:round;">
<path d="M36027 23291
L36027 22704
" />
<path d="M36027 22704
L35811 22488
" />
</g>
<g style="fill:#000000; fill-opacity:0.0; 
stroke:#000000; stroke-width:78.7402; stroke-opacity:1; 
stroke-linecap:round; stroke-linejoin:round;">
<path d="M36027 23291
L36027 23098
" />
</g>
<g style="fill:#000000; fill-opacity:0.0; 
stroke:#000000; stroke-width:236.22; stroke-opacity:1; 
stroke-linecap:round; stroke-linejoin:round;">
<path d="M40850 20716
L41952 20716
" />
<path d="M41952 20716
L42031 20795
" />
<path d="M34905 30125
L35023 30125
" />
<path d="M35437 29712
L35437 28448
" />
<path d="M35023 30125
L35437 29712
" />
</g>
<g style="fill:#000000; fill-opacity:0.0; 
stroke:#000000; stroke-width:118.11; stroke-opacity:1; 
stroke-linecap:round; stroke-linejoin:round;">
<path d="M32858 26858
L32858 26622
" />
<path d="M33527 29535
L33527 30125
" />
<path d="M33527 29535
L33527 28905
" />
<path d="M33251 22921
L34000 22921
" />
<path d="M33527 28905
L32858 28236
" />
<path d="M32858 28236
L32858 26622
" />
<path d="M32858 26622
L32858 26425
" />
<path d="M32858 26425
L32858 23314
" />
<path d="M32858 23314
L33251 22921
" />
<path d="M41342 29062
L41342 29122
" />
<path d="M41952 29732
L41952 30480
" />
<path d="M41342 29122
L41952 29732
" />
<path d="M41342 28448
L41342 29062
" />
</g>
<g style="fill:#000000; fill-opacity:1.0; 
stroke:#000000; stroke-width:100; stroke-opacity:1; 
stroke-linecap:round; stroke-linejoin:round;">
<polyline style="fill-rule:evenodd;"
points="42257,20237
42151,20194
41912,20193
41691,20285
41585,20390
41366,20390
41360,20376
41191,20207
40970,20115
40731,20115
40510,20206
40341,20375
40249,20596
40249,20835
40340,21056
40509,21225
40730,21317
40969,21317
41190,21226
41359,21057
41366,21042
41483,21042
41521,21135
41525,21138
41412,21138
41177,21236
40996,21416
40898,21651
40898,21906
40996,22141
41176,22322
41411,22419
41666,22420
41901,22322
42082,22142
42179,21907
42180,21652
42082,21417
42062,21396
42150,21396
42257,21352
42257,22792
42228,22792
42210,22795
42209,22796
42149,22784
41716,22784
41639,22798
41637,22800
41559,22784
41125,22784
41049,22798
41046,22800
40968,22784
40535,22784
40458,22798
40456,22800
40377,22784
39944,22784
39867,22798
39865,22800
39787,22784
39354,22784
39277,22798
39275,22800
39196,22784
38763,22784
38686,22798
38684,22800
38606,22784
38173,22784
38096,22798
38094,22800
38015,22784
37582,22784
37505,22798
37503,22800
37425,22784
36992,22784
36915,22798
36913,22800
36834,22784
36401,22784
36353,22793
36353,22750
36412,22608
36412,22369
36320,22148
36152,21978
35931,21887
35691,21886
35470,21978
35301,22147
35209,22368
35209,22607
35282,22784
35220,22784
35207,22786
35204,22784
35112,22746
34958,22746
34896,22808
34896,23241
34904,23241
34904,23341
34896,23341
34896,23349
34796,23349
34796,23341
34788,23341
34788,23241
34796,23241
34796,22808
34733,22746
34580,22746
34578,22746
34509,22581
34340,22411
34120,22320
33880,22319
33659,22411
33490,22580
33459,22654
33251,22654
33149,22675
33063,22732
32669,23126
32612,23212
32591,23314
32591,26475
32545,26484
32474,26529
32450,26564
32440,26539
32369,26469
32278,26431
32104,26431
32042,26493
32042,26808
32050,26808
32050,26908
32042,26908
32042,27222
32104,27285
32278,27285
32369,27247
32440,27177
32450,27152
32470,27182
32539,27230
32591,27240
32591,28236
32612,28338
32650,28395
32669,28424
33261,29015
33261,29585
33187,29616
33018,29784
32926,30005
32926,30245
33017,30466
33186,30635
33407,30727
33646,30727
33867,30635
34036,30466
34128,30246
34128,30006
34037,29785
33868,29616
33794,29585
33794,28905
33773,28803
33716,28717
33560,28561
34379,28561
34379,28793
34417,28885
34488,28956
34580,28994
34733,28994
34796,28931
34796,28498
34442,28498
34379,28561
33560,28561
33124,28125
33124,27241
33171,27232
33241,27187
33289,27117
33306,27035
33306,26681
33291,26604
33246,26533
33176,26486
33124,26475
33124,23425
33362,23187
33459,23187
33490,23261
33659,23430
33740,23464
33710,23536
33710,23690
33773,23753
34205,23753
34205,23745
34305,23745
34305,23753
34313,23753
34313,23853
34305,23853
34305,23861
34205,23861
34205,23853
33773,23853
33710,23915
33710,24069
33748,24161
33751,24164
33749,24177
33749,24610
33763,24687
33764,24689
33749,24767
33749,25200
33763,25277
33764,25279
33749,25358
33749,25791
33763,25868
33764,25870
33749,25948
33749,26381
33763,26458
33764,26460
33749,26539
33749,26972
33763,27049
33764,27051
33749,27129
33749,27562
33763,27639
33764,27642
33749,27720
33749,28153
33763,28230
33808,28301
33878,28348
33960,28365
34408,28365
34442,28398
34796,28398
34796,28390
34896,28390
34896,28398
34904,28398
34904,28498
34896,28498
34896,28931
34958,28994
35111,28994
35111,29560
35025,29524
34786,29524
34565,29616
34396,29784
34304,30005
34304,30245
34395,30466
34564,30635
34785,30727
35024,30727
35245,30635
35414,30466
35474,30323
35721,30323
35842,30616
36067,30841
36360,30963
36677,30963
36971,30842
37195,30617
37263,30454
37367,30454
37377,30710
37456,30903
37561,30942
37945,30559
38086,30559
38469,30942
38574,30903
38663,30663
38654,30407
38627,30343
39560,30343
39666,30600
39863,30797
40120,30904
40398,30904
40655,30798
40852,30601
40959,30344
40959,30066
40853,29808
40656,29611
40399,29505
40121,29504
39864,29611
39667,29807
39560,30064
39560,30343
38627,30343
38574,30214
38469,30176
38086,30559
37945,30559
37561,30176
37456,30214
37367,30454
37263,30454
37317,30324
37317,30007
37196,29713
36972,29489
36679,29367
36361,29367
36068,29488
35843,29712
35721,30005
35721,30323
35474,30323
35506,30246
35506,30103
35667,29942
35737,29837
35740,29825
35762,29712
35762,28945
35811,28955
36244,28955
36320,28941
36323,28939
36401,28955
36834,28955
36911,28941
36913,28939
36992,28955
37425,28955
37502,28941
37504,28939
37582,28955
37844,28955
37675,29025
37506,29194
37414,29415
37414,29654
37505,29875
37660,30030
37632,30105
38015,30488
38398,30105
38371,30030
38525,29876
38616,29655
38617,29416
38525,29195
38356,29026
38187,28955
38606,28955
38683,28941
38685,28939
38763,28955
39196,28955
39273,28941
39275,28939
39354,28955
39787,28955
39864,28941
39866,28939
39944,28955
40377,28955
40454,28941
40457,28939
40535,28955
40968,28955
41045,28941
41047,28939
41075,28945
41075,29122
41096,29224
41122,29263
41154,29310
41686,29842
41686,29939
41612,29970
41443,30139
41351,30360
41351,30599
41442,30820
41611,30989
41832,31081
42071,31081
42257,31005
42257,31259
27796,31259
27796,31012
37632,31012
37671,31117
37911,31207
38167,31197
38359,31117
38398,31012
38015,30629
37632,31012
27796,31012
27796,30561
27819,30618
28046,30854
28346,30986
28477,30941
28477,30215
28577,30215
28577,30941
28708,30986
29008,30854
29235,30618
29348,30345
29304,30215
28577,30215
28477,30215
28469,30215
28469,30115
28477,30115
28477,29388
28577,29388
28577,30115
29304,30115
29348,29984
29235,29712
29008,29476
28708,29344
28577,29388
28477,29388
28346,29344
28046,29476
27819,29712
27796,29768
27796,28511
29812,28511
29812,29299
29826,29376
29871,29446
29941,29494
30023,29510
30811,29510
30887,29496
30958,29450
31005,29381
31022,29299
31022,29024
31390,29024
31482,29245
31651,29414
31872,29506
32111,29506
32332,29415
32501,29246
32593,29025
32593,28786
32502,28565
32333,28396
32112,28304
31873,28304
31652,28395
31482,28564
31391,28785
31390,29024
31022,29024
31022,28511
31008,28434
30962,28364
30893,28316
30811,28300
30023,28300
29946,28314
29876,28360
29828,28429
29812,28511
27796,28511
27796,26970
31505,26970
31505,27085
31543,27177
31614,27247
31706,27285
31879,27285
31942,27222
31942,26908
31568,26908
31505,26970
27796,26970
27796,26631
31505,26631
31505,26745
31568,26808
31942,26808
31942,26493
31879,26431
31706,26431
31614,26469
31543,26539
31505,26631
27796,26631
27796,26280
29250,26280
29289,26376
29363,26450
29459,26489
29563,26490
29659,26450
29733,26376
29773,26280
29773,26176
29733,26080
29660,26006
29564,25966
29460,25966
29363,26006
29290,26079
29250,26176
29250,26280
27796,26280
27796,24705
29250,24705
29289,24801
29363,24875
29459,24915
29563,24915
29659,24875
29733,24801
29773,24705
29773,24601
29733,24505
29660,24431
29564,24391
29460,24391
29363,24431
29290,24505
29250,24601
29250,24705
27796,24705
27796,21694
28312,21694
28418,21924
28604,22097
28794,22175
28894,22128
28894,21593
28359,21593
28312,21694
27796,21694
27796,21392
28312,21392
28359,21493
28894,21493
28894,20957
28994,20957
28994,21493
29002,21493
29002,21593
28994,21593
28994,22128
29095,22175
29285,22097
29355,22032
29393,22090
29462,22138
29544,22154
29619,22154
29619,22212
29644,22337
29714,22442
29911,22639
30017,22710
30141,22735
30964,22735
30970,22749
31139,22918
31360,23010
31599,23010
31820,22919
31989,22750
32081,22529
32081,22290
31990,22069
31821,21900
31600,21808
31361,21808
31140,21899
30970,22068
30964,22083
30499,22083
30539,22025
30556,21943
30556,21143
30546,21091
31686,21091
31792,21348
31989,21545
32246,21652
32524,21652
32781,21546
32978,21349
33085,21092
33085,21012
36615,21012
36691,21197
36832,21339
37017,21416
37217,21416
37402,21339
37544,21198
37620,21013
37620,21012
38536,21012
38612,21197
38754,21339
38938,21416
39138,21416
39323,21339
39465,21198
39542,21013
39542,20813
39465,20628
39324,20487
39139,20410
38939,20410
38754,20486
38613,20628
38536,20812
38536,21012
37620,21012
37620,20813
37544,20628
37403,20487
37218,20410
37018,20410
36833,20486
36692,20628
36615,20812
36615,21012
33085,21012
33085,20814
32979,20556
32782,20360
32525,20253
32247,20253
31990,20359
31793,20555
31686,20812
31686,21091
30546,21091
30541,21066
30496,20995
30427,20948
30344,20931
29544,20931
29467,20946
29397,20991
29354,21053
29285,20989
29095,20911
28994,20957
28894,20957
28794,20911
28604,20989
28418,21162
28312,21392
27796,21392
27796,19922
42257,19922
42257,20237
" /> 
</g>
<g style="fill:#FFFFFF; fill-opacity:1.0; 
stroke:#FFFFFF; stroke-width:100; stroke-opacity:1; 
stroke-linecap:round; stroke-linejoin:round;">
</g>
<g style="fill:#FFFFFF; fill-opacity:1.0; 
stroke:#FFFFFF; stroke-width:0; stroke-opacity:1; 
stroke-linecap:round; stroke-linejoin:round;">
<circle cx="31480.3" cy="22409.4" r="68.8976" /> 
</g>
<g style="fill:#FFFFFF; fill-opacity:1.0; 
stroke:#FFFFFF; stroke-width:39.3701; stroke-opacity:1; 
stroke-linecap:round; stroke-linejoin:round;">
</g>
<g style="fill:#FFFFFF; fill-opacity:1.0; 
stroke:#FFFFFF; stroke-width:0; stroke-opacity:1; 
stroke-linecap:round; stroke-linejoin:round;">
<circle cx="43212.6" cy="30480.3" r="68.8976" /> 
</g>
<g style="fill:#FFFFFF; fill-opacity:1.0; 
stroke:#FFFFFF; stroke-width:39.3701; stroke-opacity:1; 
stroke-linecap:round; stroke-linejoin:round;">
</g>
<g style="fill:#FFFFFF; fill-opacity:1.0; 
stroke:#FFFFFF; stroke-width:0; stroke-opacity:1; 
stroke-linecap:round; stroke-linejoin:round;">
<circle cx="35811" cy="22488.2" r="68.8976" /> 
</g>
<g style="fill:#FFFFFF; fill-opacity:1.0; 
stroke:#FFFFFF; stroke-width:39.3701; stroke-opacity:1; 
stroke-linecap:round; stroke-linejoin:round;">
</g>
<g style="fill:#FFFFFF; fill-opacity:1.0; 
stroke:#FFFFFF; stroke-width:0; stroke-opacity:1; 
stroke-linecap:round; stroke-linejoin:round;">
<circle cx="40850.4" cy="20716.5" r="68.8976" /> 
</g>
<g style="fill:#FFFFFF; fill-opacity:1.0; 
stroke:#FFFFFF; stroke-width:39.3701; stroke-opacity:1; 
stroke-linecap:round; stroke-linejoin:round;">
</g>
<g style="fill:#FFFFFF; fill-opacity:1.0; 
stroke:#FFFFFF; stroke-width:0; stroke-opacity:1; 
stroke-linecap:round; stroke-linejoin:round;">
<circle cx="34905.5" cy="30126" r="68.8976" /> 
</g>
<g style="fill:#FFFFFF; fill-opacity:1.0; 
stroke:#FFFFFF; stroke-width:39.3701; stroke-opacity:1; 
stroke-linecap:round; stroke-linejoin:round;">
</g>
<g style="fill:#FFFFFF; fill-opacity:1.0; 
stroke:#FFFFFF; stroke-width:0; stroke-opacity:1; 
stroke-linecap:round; stroke-linejoin:round;">
<circle cx="33527.6" cy="30126" r="68.8976" /> 
</g>
<g style="fill:#FFFFFF; fill-opacity:1.0; 
stroke:#FFFFFF; stroke-width:39.3701; stroke-opacity:1; 
stroke-linecap:round; stroke-linejoin:round;">
</g>
<g style="fill:#FFFFFF; fill-opacity:1.0; 
stroke:#FFFFFF; stroke-width:0; stroke-opacity:1; 
stroke-linecap:round; stroke-linejoin:round;">
<circle cx="34000" cy="22921.3" r="68.8976" /> 
</g>
<g style="fill:#FFFFFF; fill-opacity:1.0; 
stroke:#FFFFFF; stroke-width:39.3701; stroke-opacity:1; 
stroke-linecap:round; stroke-linejoin:round;">
</g>
<g style="fill:#FFFFFF; fill-opacity:1.0; 
stroke:#FFFFFF; stroke-width:0; stroke-opacity:1; 
stroke-linecap:round; stroke-linejoin:round;">
<circle cx="41952.8" cy="30480.3" r="68.8976" /> 
</g>
<g style="fill:#FFFFFF; fill-opacity:1.0; 
stroke:#FFFFFF; stroke-width:39.3701; stroke-opacity:1; 
stroke-linecap:round; stroke-linejoin:round;">
</g>
<g style="fill:#FFFFFF; fill-opacity:1.0; 
stroke:#FFFFFF; stroke-width:0; stroke-opacity:1; 
stroke-linecap:round; stroke-linejoin:round;">
<circle cx="40259.8" cy="30204.7" r="39.3701" /> 
</g>
<g style="fill:#FFFFFF; fill-opacity:1.0; 
stroke:#FFFFFF; stroke-width:39.3701; stroke-opacity:1; 
stroke-linecap:round; stroke-linejoin:round;">
</g>
<g style="fill:#FFFFFF; fill-opacity:1.0; 
stroke:#FFFFFF; stroke-width:0; stroke-opacity:1; 
stroke-linecap:round; stroke-linejoin:round;">
<circle cx="32385.8" cy="20952.8" r="39.3701" /> 
</g>
<g style="fill:#FFFFFF; fill-opacity:1.0; 
stroke:#FFFFFF; stroke-width:39.3701; stroke-opacity:1; 
stroke-linecap:round; stroke-linejoin:round;">
</g>
<g style="fill:#FFFFFF; fill-opacity:1.0; 
stroke:#FFFFFF; stroke-width:0; stroke-opacity:1; 
stroke-linecap:round; stroke-linejoin:round;">
<circle cx="29944.9" cy="21543.3" r="68.8976" /> 
</g>
<g style="fill:#FFFFFF; fill-opacity:1.0; 
stroke:#FFFFFF; stroke-width:39.3701; stroke-opacity:1; 
stroke-linecap:round; stroke-linejoin:round;">
</g>
<g style="fill:#FFFFFF; fill-opacity:1.0; 
stroke:#FFFFFF; stroke-width:0; stroke-opacity:1; 
stroke-linecap:round; stroke-linejoin:round;">
<circle cx="28944.9" cy="21543.3" r="68.8976" /> 
</g>
<g style="fill:#FFFFFF; fill-opacity:1.0; 
stroke:#FFFFFF; stroke-width:39.3701; stroke-opacity:1; 
stroke-linecap:round; stroke-linejoin:round;">
</g>
<g style="fill:#FFFFFF; fill-opacity:1.0; 
stroke:#FFFFFF; stroke-width:0; stroke-opacity:1; 
stroke-linecap:round; stroke-linejoin:round;">
<circle cx="38015.7" cy="30559.1" r="68.8976" /> 
</g>
<g style="fill:#FFFFFF; fill-opacity:1.0; 
stroke:#FFFFFF; stroke-width:39.3701; stroke-opacity:1; 
stroke-linecap:round; stroke-linejoin:round;">
</g>
<g style="fill:#FFFFFF; fill-opacity:1.0; 
stroke:#FFFFFF; stroke-width:0; stroke-opacity:1; 
stroke-linecap:round; stroke-linejoin:round;">
<circle cx="38015.7" cy="29535.4" r="68.8976" /> 
</g>
<g style="fill:#FFFFFF; fill-opacity:1.0; 
stroke:#FFFFFF; stroke-width:39.3701; stroke-opacity:1; 
stroke-linecap:round; stroke-linejoin:round;">
</g>
<g style="fill:#FFFFFF; fill-opacity:1.0; 
stroke:#FFFFFF; stroke-width:0; stroke-opacity:1; 
stroke-linecap:round; stroke-linejoin:round;">
<circle cx="36519.7" cy="30165.4" r="68.8976" /> 
</g>
<g style="fill:#FFFFFF; fill-opacity:1.0; 
stroke:#FFFFFF; stroke-width:39.3701; stroke-opacity:1; 
stroke-linecap:round; stroke-linejoin:round;">
</g>
<g style="fill:#FFFFFF; fill-opacity:1.0; 
stroke:#FFFFFF; stroke-width:0; stroke-opacity:1; 
stroke-linecap:round; stroke-linejoin:round;">
<circle cx="28527.6" cy="30165.4" r="68.8976" /> 
</g>
<g style="fill:#FFFFFF; fill-opacity:1.0; 
stroke:#FFFFFF; stroke-width:39.3701; stroke-opacity:1; 
stroke-linecap:round; stroke-linejoin:round;">
</g>
<g style="fill:#FFFFFF; fill-opacity:1.0; 
stroke:#FFFFFF; stroke-width:0; stroke-opacity:1; 
stroke-linecap:round; stroke-linejoin:round;">
<circle cx="39039.4" cy="20913.4" r="68.8976" /> 
</g>
<g style="fill:#FFFFFF; fill-opacity:1.0; 
stroke:#FFFFFF; stroke-width:39.3701; stroke-opacity:1; 
stroke-linecap:round; stroke-linejoin:round;">
</g>
<g style="fill:#FFFFFF; fill-opacity:1.0; 
stroke:#FFFFFF; stroke-width:0; stroke-opacity:1; 
stroke-linecap:round; stroke-linejoin:round;">
<circle cx="37118.1" cy="20913.4" r="68.8976" /> 
</g>
<g style="fill:#FFFFFF; fill-opacity:1.0; 
stroke:#FFFFFF; stroke-width:39.3701; stroke-opacity:1; 
stroke-linecap:round; stroke-linejoin:round;">
</g>
<g style="fill:#FFFFFF; fill-opacity:1.0; 
stroke:#FFFFFF; stroke-width:0; stroke-opacity:1; 
stroke-linecap:round; stroke-linejoin:round;">
<circle cx="29511.8" cy="24653.5" r="19.685" /> 
</g>
<g style="fill:#FFFFFF; fill-opacity:1.0; 
stroke:#FFFFFF; stroke-width:39.3701; stroke-opacity:1; 
stroke-linecap:round; stroke-linejoin:round;">
</g>
<g style="fill:#FFFFFF; fill-opacity:1.0; 
stroke:#FFFFFF; stroke-width:0; stroke-opacity:1; 
stroke-linecap:round; stroke-linejoin:round;">
<circle cx="29511.8" cy="26228.3" r="19.685" /> 
</g>
<g style="fill:#FFFFFF; fill-opacity:1.0; 
stroke:#FFFFFF; stroke-width:39.3701; stroke-opacity:1; 
stroke-linecap:round; stroke-linejoin:round;">
</g>
<g style="fill:#FFFFFF; fill-opacity:1.0; 
stroke:#FFFFFF; stroke-width:0; stroke-opacity:1; 
stroke-linecap:round; stroke-linejoin:round;">
<circle cx="44295.3" cy="21779.5" r="68.8976" /> 
</g>
<g style="fill:#FFFFFF; fill-opacity:1.0; 
stroke:#FFFFFF; stroke-width:39.3701; stroke-opacity:1; 
stroke-linecap:round; stroke-linejoin:round;">
</g>
<g style="fill:#FFFFFF; fill-opacity:1.0; 
stroke:#FFFFFF; stroke-width:0; stroke-opacity:1; 
stroke-linecap:round; stroke-linejoin:round;">
<circle cx="41539.4" cy="21779.5" r="68.8976" /> 
</g>
<g style="fill:#FFFFFF; fill-opacity:1.0; 
stroke:#FFFFFF; stroke-width:39.3701; stroke-opacity:1; 
stroke-linecap:round; stroke-linejoin:round;">
</g>
<g style="fill:#FFFFFF; fill-opacity:1.0; 
stroke:#FFFFFF; stroke-width:0; stroke-opacity:1; 
stroke-linecap:round; stroke-linejoin:round;">
<circle cx="43803.1" cy="20795.3" r="68.8976" /> 
</g>
<g style="fill:#FFFFFF; fill-opacity:1.0; 
stroke:#FFFFFF; stroke-width:39.3701; stroke-opacity:1; 
stroke-linecap:round; stroke-linejoin:round;">
</g>
<g style="fill:#FFFFFF; fill-opacity:1.0; 
stroke:#FFFFFF; stroke-width:0; stroke-opacity:1; 
stroke-linecap:round; stroke-linejoin:round;">
<circle cx="42031.5" cy="20795.3" r="68.8976" /> 
</g>
<g style="fill:#FFFFFF; fill-opacity:1.0; 
stroke:#FFFFFF; stroke-width:39.3701; stroke-opacity:1; 
stroke-linecap:round; stroke-linejoin:round;">
</g>
<g style="fill:#FFFFFF; fill-opacity:1.0; 
stroke:#FFFFFF; stroke-width:0; stroke-opacity:1; 
stroke-linecap:round; stroke-linejoin:round;">
<circle cx="30417.3" cy="28905.5" r="68.8976" /> 
</g>
<g style="fill:#FFFFFF; fill-opacity:1.0; 
stroke:#FFFFFF; stroke-width:39.3701; stroke-opacity:1; 
stroke-linecap:round; stroke-linejoin:round;">
</g>
<g style="fill:#FFFFFF; fill-opacity:1.0; 
stroke:#FFFFFF; stroke-width:0; stroke-opacity:1; 
stroke-linecap:round; stroke-linejoin:round;">
<circle cx="31992.1" cy="28905.5" r="68.8976" /> 
</g>
<g style="fill:#FFFFFF; fill-opacity:1.0; 
stroke:#FFFFFF; stroke-width:39.3701; stroke-opacity:1; 
stroke-linecap:round; stroke-linejoin:round;">
</g>
<g style="fill:#000000; fill-opacity:1.0; 
stroke:#000000; stroke-width:39.3701; stroke-opacity:1; 
stroke-linecap:round; stroke-linejoin:round;">
</g> 
</svg>
